<?xml version="1.0" encoding="UTF-8"?>
<svg width="2327" height="755.46" version="1.1" viewBox="0 0 615.68 199.88" xmlns="http://www.w3.org/2000/svg">
 <g transform="translate(-27.614 14.03)">
  <rect x="526.73" y="32.908" width="27.914" height="88.864" rx="13.957" ry="13.957" fill="#d8d2d5" stroke="#000" stroke-linecap="round" stroke-linejoin="round" stroke-width="2.8882" style="paint-order:stroke fill markers"/>
  <g fill="none" stroke-width="3">
   <path d="m410.3 52.5h207.42" stroke="#f8b90f"/>
   <path d="m264.24 180.16v-76.19h353.48" stroke="#f00"/>
   <path d="m126.07 152.51v-100.52h268.4" stroke="#07c"/>
   <path d="m28.937 152.51h355.77" stroke="#e51"/>
  </g>
  <g fill="#e51" stroke="#fff" stroke-linecap="round" stroke-linejoin="round" stroke-width="3">
   <path d="m64.896 153.02a7.9186 7.9186 0 0 1-8.4191 7.3841 7.9186 7.9186 0 0 1-7.3842-8.4189 7.9186 7.9186 0 0 1 8.4188-7.3844 7.9186 7.9186 0 0 1 7.3845 8.4187" style="paint-order:stroke markers fill"/>
   <path d="m133.98 153.02a7.9186 7.9186 0 0 1-8.4191 7.3841 7.9186 7.9186 0 0 1-7.3842-8.4189 7.9186 7.9186 0 0 1 8.4188-7.3844 7.9186 7.9186 0 0 1 7.3845 8.4187" style="paint-order:stroke markers fill"/>
   <path d="m203.06 153.02a7.9186 7.9186 0 0 1-8.4191 7.3841 7.9186 7.9186 0 0 1-7.3842-8.4189 7.9186 7.9186 0 0 1 8.4188-7.3844 7.9186 7.9186 0 0 1 7.3846 8.4187" style="paint-order:stroke markers fill"/>
   <path d="m272.14 153.02a7.9186 7.9186 0 0 1-8.4191 7.3841 7.9186 7.9186 0 0 1-7.3842-8.4189 7.9186 7.9186 0 0 1 8.4188-7.3844 7.9186 7.9186 0 0 1 7.3845 8.4187" style="paint-order:stroke markers fill"/>
  </g>
  <g fill="#07c" stroke="#fff" stroke-linecap="round" stroke-linejoin="round" stroke-width="3">
   <path d="m133.98 51.984a7.9186 7.9186 0 0 1-8.4191 7.3841 7.9186 7.9186 0 0 1-7.3842-8.4189 7.9186 7.9186 0 0 1 8.4188-7.3844 7.9186 7.9186 0 0 1 7.3845 8.4187" style="paint-order:stroke markers fill"/>
   <path d="m203.06 51.984a7.9186 7.9186 0 0 1-8.4191 7.3841 7.9186 7.9186 0 0 1-7.3842-8.4189 7.9186 7.9186 0 0 1 8.4188-7.3844 7.9186 7.9186 0 0 1 7.3846 8.4187" style="paint-order:stroke markers fill"/>
   <path d="m272.14 51.984a7.9186 7.9186 0 0 1-8.4191 7.3841 7.9186 7.9186 0 0 1-7.3842-8.4189 7.9186 7.9186 0 0 1 8.4188-7.3844 7.9186 7.9186 0 0 1 7.3846 8.4187" style="paint-order:stroke markers fill"/>
  </g>
  <g stroke="#fff">
   <g stroke-linecap="round" stroke-linejoin="round">
    <g stroke-width="3">
     <path d="m272.14 104.48a7.9186 7.9186 0 0 1-8.4191 7.3841 7.9186 7.9186 0 0 1-7.3842-8.4189 7.9186 7.9186 0 0 1 8.4188-7.3844 7.9186 7.9186 0 0 1 7.3845 8.4187" fill="#f00" style="paint-order:stroke markers fill"/>
     <path d="m341.22 104.48a7.9186 7.9186 0 0 1-8.4191 7.3841 7.9186 7.9186 0 0 1-7.3842-8.4189 7.9186 7.9186 0 0 1 8.4188-7.3844 7.9186 7.9186 0 0 1 7.3846 8.4187" fill="#f00" style="paint-order:stroke markers fill"/>
     <path d="m410.3 52.501a7.9186 7.9186 0 0 1-8.4191 7.3841 7.9186 7.9186 0 0 1-7.3842-8.4189 7.9186 7.9186 0 0 1 8.4188-7.3844 7.9186 7.9186 0 0 1 7.3845 8.4187" fill="#07c" style="paint-order:stroke markers fill"/>
    </g>
    <rect x="463.81" y="44.322" width="15.323" height="15.323" rx="2.4489" ry="2.4489" fill="#f8b90f" stroke-width="3.6364" style="paint-order:stroke markers fill"/>
    <rect x="532.9" y="44.322" width="15.323" height="15.323" rx="2.4489" ry="2.4489" fill="#f8b90f" stroke-width="3.6364" style="paint-order:stroke markers fill"/>
   </g>
   <path d="m334.31 38.72-1.9844 4.5898s2.067 1.1031 2.7422 2.125c0.33759 0.51094 0.41714 0.69031 0.20898 1.2754-0.20815 0.58508-1.0286 1.7811-3.3203 3.2676-2.8196 1.8289-4.5532 3.6538-5.3086 5.752-0.75542 2.0981-0.18894 4.2706 0.76172 5.6777 1.9013 2.8143 4.9473 3.8652 4.9473 3.8652l1.9199-4.6172s-2.0682-1.0753-2.7246-2.0469c-0.32819-0.48577-0.40294-0.61971-0.19922-1.1855 0.20372-0.56583 1.0284-1.7608 3.3242-3.25 2.8237-1.8316 4.5596-3.6762 5.3105-5.7871 0.75099-2.1109 0.19321-4.2824-0.74804-5.707-1.8825-2.8492-4.9297-3.959-4.9297-3.959z" color="#000000" color-rendering="auto" dominant-baseline="auto" fill="#07c" image-rendering="auto" shape-rendering="auto" solid-color="#000000" stop-color="#000000" stroke-width="5" style="font-feature-settings:normal;font-variant-alternates:normal;font-variant-caps:normal;font-variant-east-asian:normal;font-variant-ligatures:normal;font-variant-numeric:normal;font-variant-position:normal;font-variation-settings:normal;inline-size:0;isolation:auto;mix-blend-mode:normal;paint-order:markers stroke fill;shape-margin:0;shape-padding:0;text-decoration-color:#000000;text-decoration-line:none;text-decoration-style:solid;text-indent:0;text-orientation:mixed;text-transform:none;white-space:normal"/>
  </g>
  <g fill="#fffffd" stroke-linecap="round" stroke-linejoin="round">
   <g stroke="#e51">
    <g stroke-width="3" style="paint-order:stroke fill markers" aria-label="天神">
     <path d="m47.54 175.89q-2.5629 4.448-7.9004 6.7566l-2.0969-2.5417q6.1848-2.457 7.7733-6.7143h-6.2483v-2.9865h6.7355v-2.9229h-7.498v-3.0077h18.3v3.0077h-7.5615v2.9229h6.6507v2.9865h-6.1424q1.1649 2.2663 3.05 3.8761 1.8215 1.5462 4.7657 2.817l-2.0333 2.6264q-5.2105-2.4358-7.7945-6.8202z" style="paint-order:stroke fill markers"/>
     <path d="m64.463 182.73h-2.8594v-6.1848q-0.97431 1.0802-2.0545 2.0545l-1.1438-2.9653q3.4948-3.3042 4.9139-6.2907h-4.1938v-2.7747h2.4146v-2.9653h2.9018v2.9653h2.0757v2.4146q-0.74132 1.7156-1.8004 3.4313 0.97431 1.1226 2.3934 2.4358v-8.324h3.9184v-2.9441h2.9653v2.9441h4.1091v12.433h-2.7747v-0.88959h-1.3344v4.575h-2.9441v-4.575h-1.292v0.88959h-2.6476v-3.1347l-1.059 1.9274q-0.86841-0.88959-1.5886-1.6945zm10.866-11.819v-1.525h-1.4191v1.525zm-4.2361 0v-1.525h-1.3344v1.525zm4.2361 4.2997v-1.6097h-1.4191v1.6097zm-4.2361 0v-1.6097h-1.3344v1.6097z" style="paint-order:stroke fill markers"/>
    </g>
    <g transform="scale(.8776 1.1395)" stroke-width="1.7659" style="paint-order:stroke fill markers" aria-label="中洲川端">
     <path d="m125.46 151.4h2.6182v-2.2068h-2.6182zm-4.4385 0h2.4811v-2.2068h-2.4811zm7.0568 1.7829h-2.6182v3.5783h-1.9574v-3.5783h-2.4811v0.7356h-1.8702v-6.4957h4.3513v-1.8328h1.9574v1.8328h4.4884v6.4957h-1.8702z" style="paint-order:stroke fill markers"/>
     <path d="m134.49 146.9-1.0099 1.5086q-0.99743-0.78547-2.0572-1.3091l0.97249-1.4961q0.97249 0.46131 2.0946 1.2966zm-0.3865 2.8551-0.97249 1.4587q-0.99742-0.76054-2.1071-1.2966l0.96002-1.5086q0.94755 0.42391 2.132 1.2967 0.13714-0.43638 0.23688-0.83535l0.84781 0.43638v-3.5658h1.7455v3.2416l0.36156-0.33663q0.27429 0.57352 0.54859 1.3216v-3.7154h1.6582v2.5684l0.36157-0.36156q0.31169 0.63585 0.59845 1.3465v-4.0645h1.8328v11.009h-1.8328v-5.1617l-0.33663 0.36157q-0.24935-0.87275-0.62339-1.8452v6.0219h-1.6582v-4.4011l-0.37404 0.3865q-0.22442-0.86028-0.53611-1.733v0.48624q0 1.92-0.2743 3.1045-0.36156 1.6208-1.3964 3.0047l-1.733-1.1221q0.98495-1.1844 1.3465-2.4063 0.28676-0.94756 0.31169-2.4188-0.26182 0.78547-0.58598 1.4213l-1.2966-0.92262q0.47377-0.8104 0.78547-1.7704zm0.0748 3.1045q-0.58598 2.2442-1.4463 3.865l-1.6582-0.79794q0.89768-1.4463 1.5959-3.9398z" style="paint-order:stroke fill markers"/>
     <path d="m154.37 156.61h-1.9948v-10.735h1.9948zm-3.865-1.1346h-1.945v-8.8646h1.945zm-3.7029-5.5232q0 2.1819-0.22442 3.6157-0.31169 1.9948-1.1221 3.2416l-1.9824-0.97249q0.83534-1.2218 1.1221-2.8052 0.19949-1.1346 0.19949-3.3414v-3.8152h2.0073z" style="paint-order:stroke fill markers"/>
     <path d="m167.37 148.85h-6.795v-2.905h1.6333v1.2842h0.87275v-1.6458h1.7704v1.6458h0.89769v-1.2842h1.6208zm-1.8951 6.2962h0.16209q0.19948 0 0.26182-0.0873 0.0623-0.0997 0.0623-0.3491v-1.5335h-0.48625zm-5.8599-1.4213q0.3865-0.13715 0.82287-0.32417v-1.8328h2.2691q0.0873-0.26183 0.16208-0.57352h-2.6432v-1.0473q-0.28676 2.0447-0.61092 3.7778zm0.82287 1.4961q-1.9325 0.74807-4.1019 1.1595l-0.26183-1.8452q0.96002-0.12467 1.9574-0.36156l0.12468-0.68573-1.3964 0.33663q-0.14961-2.2068-0.48624-3.9149l1.4712-0.37403q0.33663 1.8452 0.44884 3.7279 0.3491-2.0821 0.46131-3.89l1.5709 0.3865v-0.43638h7.568v1.6707h-3.117q-0.0873 0.36157-0.14962 0.57352h2.9424v3.8276q0 0.86028-0.24935 1.147-0.23689 0.28676-0.89769 0.28676h-0.89768l-0.14961-0.59845h-1.0972v-3.0546h-0.43637v3.0546h-1.2966v-3.0546h-0.46131v3.678h-1.546zm-0.16208-6.0718h-4.0396v-1.6956h1.2592v-1.7954h1.7206v1.7954h1.0598z" style="paint-order:stroke fill markers"/>
    </g>
    <g stroke-width="3" style="paint-order:stroke fill markers" aria-label="博多">
     <path d="m284.93 171.49h-1.4826v11.183h-3.0712v-11.183h-1.6945v-3.1771h1.6945v-4.7021h3.0712v4.7021h1.4826zm5.5705 9.1077-2.6264 1.4826q-1.059-1.7792-2.0333-2.8806l1.2073-0.74133h-2.584v-2.5629h8.1334v-0.61424h-7.2226v-7.2014h4.4903v-0.61424h-5.0834v-2.4993h5.0834v-1.4826h3.1559v1.4826h1.3344q-0.33889-0.48716-0.76251-0.97431l2.0334-0.86841q0.78369 0.72014 1.4826 1.6521l-0.4448 0.19063h1.4403v2.4993h-5.1893v0.6566h4.4903v7.1591h-1.6521v0.61424h2.6264v2.5629h-2.6264v1.6945q0 1.4826-0.57187 2.0334-0.48716 0.48715-1.6521 0.48715h-2.4358l-0.61424-2.5629h1.292q0.48716 0 0.6566-0.14827 0.16945-0.14826 0.16945-0.67778v-0.82605h-3.6219q0.80487 0.93195 1.525 2.1392zm4.1091-9.7855v-0.72014h-1.8215v0.72014zm0 2.4993v-0.74132h-1.8215v0.74132zm-4.6174-2.4993v-0.72014h-1.8004v0.72014zm0 2.4993v-0.74132h-1.8004v0.74132z" style="paint-order:stroke fill markers"/>
     <path d="m306.64 167.86q0.95314 0.63542 1.8004 1.2497 1.5038-0.88958 2.6052-1.9274h-3.4524q-0.38126 0.27535-0.95314 0.67778zm-1.1014 2.6688q-0.67778-0.57188-1.4403-1.1438-0.88959 0.46598-1.9486 0.91077l-2.3934-2.1604q2.2663-0.84723 4.4056-2.1181 2.3087-1.3767 3.6219-2.7535l3.4736 0.27535q-0.4448 0.59306-0.95313 1.1649h5.4223v2.224q-2.3934 2.7323-6.0153 4.8292-3.6007 2.0757-7.9004 3.2195l-2.1181-2.817q3.3254-0.63543 5.8459-1.6309zm5.4646 5.0834q1.0802 0.69896 1.9486 1.3556 1.6733-0.99549 2.8594-2.2028h-3.5584q-0.61424 0.4448-1.2497 0.84723zm-1.1861 2.8382q-0.84723-0.72014-1.6521-1.3344-1.3556 0.61424-2.6264 1.059l-2.3299-2.351q5.8882-1.7368 9.9126-5.4646l3.1347 0.36007q-0.5507 0.78368-1.1226 1.4403h4.3632v2.7958q-2.1181 3.3254-6.1212 5.4646-3.7066 1.9486-8.3876 2.6052l-2.2452-3.0288q3.8972-0.38125 7.0744-1.5462z" style="paint-order:stroke fill markers"/>
    </g>
   </g>
   <g stroke="#07c">
    <g transform="scale(.92768 1.078)" stroke-width="1.976" style="paint-order:stroke fill markers" aria-label="呉服町">
     <path d="m127.39 29.261h-7.4221v-4.5621h7.4221zm-2.1206-1.7021v-1.0882h-3.2925v1.0882zm-3.5995 7.5338q-2.0788 1.3533-4.4086 2.023l-1.3951-1.6742q2.4834-0.55806 4.0459-1.423h-3.9762v-1.8416h8.8591v-0.62781h-7.7151v-6.2363h2.1625v4.5621h7.7012v2.302h1.5346v1.8416h-4.032q1.5765 0.86499 4.0738 1.423l-1.4091 1.6881q-2.3717-0.69757-4.4365-2.023l1.4788-1.0882h-3.9343z" style="paint-order:stroke fill markers"/>
     <path d="m139.29 30.809q0.16742 0.79523 0.5162 1.5347 0.39064-0.73942 0.57201-1.5347zm-0.59991 3.153q-0.75338-1.4509-1.0184-3.153h-0.15347v4.297q0.62781-0.5162 1.1719-1.144zm3.9901 1.4091-1.423 1.6323q-0.80918-0.61386-1.4649-1.3951-0.58596 0.73942-1.2138 1.3533l-1.0603-0.75338v0.76733h-1.9392v-12.277h6.5572v2.4415q0 0.90684-0.33484 1.2277-0.32088 0.30693-1.2138 0.30693h-2.0369l-0.32089-1.5347h1.6044q0.25113 0 0.32089-0.08371 0.0697-0.08371 0.0697-0.30693v-0.20927h-2.6647v2.581h4.59v1.4788q-0.29298 1.7021-1.2417 3.3623 0.72547 0.76733 1.7718 1.4091zm-10.491-7.5059h1.0045v-1.2696h-1.0045zm0 3.0833h1.0045v-1.3254h-1.0045zm1.0045 1.8276h-1.0464q-0.15346 2.595-1.0184 4.4505l-1.6742-1.5626q0.59991-1.2556 0.78128-2.9996 0.0977-0.9487 0.0977-3.0135v-4.9527h4.7156v10.547q0 1.0603-0.37668 1.423-0.32089 0.30693-1.1859 0.30693h-0.96265l-0.57201-2.1067h0.75338q0.27903 0 0.37669-0.09766 0.11161-0.09766 0.11161-0.39064z" style="paint-order:stroke fill markers"/>
     <path d="m151.1 27.6v7.2268h1.2277q0.41854 0 0.53016-0.16742 0.0977-0.12556 0.0977-0.5441v-6.5153zm-0.11161 7.3524h-4.8551v0.92079h-2.0648v-11.036h7.0315v0.69757h5.5666v2.0648h-1.5347v6.8641q0 1.5486-0.41854 1.995-0.40459 0.44644-1.73 0.44644h-1.5486zm-1.73-6.1665v-1.9811h-0.79523v1.9811zm-2.3857 0v-1.9811h-0.82313v1.9811zm2.3857 4.1994v-2.2322h-0.79523v2.2322zm-2.3857 0v-2.2322h-0.82313v2.2322z" style="paint-order:stroke fill markers"/>
    </g>
    <g transform="scale(.82893 1.2064)" stroke-width="1.7894" style="paint-order:stroke fill markers" aria-label="千代県庁口">
     <path d="m215.95 28.437h-4.7249v4.8386h-2.0466v-4.8386h-4.6239v-1.8824h4.6239v-1.8319q-1.5539 0.13897-3.2089 0.21477l-0.85908-1.8824q4.7755-0.12634 8.6918-0.93488l1.0612 1.794q-1.7308 0.3411-3.6384 0.58114v2.0593h4.7249z" style="paint-order:stroke fill markers"/>
     <path d="m227.73 23.637-1.2381 1.137q-0.82118-0.82118-1.794-1.4655l1.1876-1.1117q0.93488 0.56851 1.8445 1.4402zm1.0612 7.4664q-1.1496 2.1477-2.552 2.1477-2.4888 0-3.3352-6.2536l-1.9835 0.20214v-1.8192l1.7813-0.17687q-0.13897-1.5034-0.22741-3.1078h1.9456q0 0.90961 0.17687 2.9057l3.9038-0.39164v1.8192l-3.7142 0.379q0.25267 1.8192 0.72011 3.0952 0.46744 1.2634 0.87172 1.2634 0.21476 0 0.5685-0.56851 0.35374-0.56851 0.61904-1.2886zm-8.2497 2.2235h-1.9329v-5.0787q-0.42954 0.61904-0.96014 1.276l-0.93488-1.8445q1.8319-2.3751 2.7794-5.7861l1.8698 0.3411q-0.35374 1.3139-0.82118 2.4509z" style="paint-order:stroke fill markers"/>
     <path d="m240.26 28.084h-7.2516v-5.8998h7.2516zm-1.9203-4.1312v-0.41691h-3.411v0.41691zm0 1.415v-0.41691h-3.411v0.41691zm0 1.4276v-0.42954h-3.411v0.42954zm-4.3586 4.068q-1.0865 1.276-2.8425 2.3625l-1.4402-1.2634q1.7182-0.89698 2.7162-1.8698h-2.0845v-7.2769h1.9708v5.6724h8.8687v1.6045h-2.552q1.0991 0.96015 2.7667 1.7813l-1.4655 1.3265q-1.7813-1.0233-2.9815-2.3246l1.2002-0.78328h-1.6424v3.2089h-2.0087v-3.2089h-1.7182z" style="paint-order:stroke fill markers"/>
     <path d="m253.62 25.14h-8.4139v1.4276q0 2.173-0.20213 3.5374-0.24004 1.6676-0.90962 3.3352l-2.0087-0.92224q0.70747-1.3265 0.96014-3.0699 0.17687-1.2128 0.17687-3.2468v-2.9183h4.0048v-1.2381h2.0972v1.2381h4.2954zm0.16424 2.9057h-2.7541v3.2215q0 1.2254-0.35374 1.5918-0.35374 0.379-1.377 0.379h-1.8192l-0.54324-1.8698h1.4528q0.36638 0 0.49271-0.1516 0.0884-0.1137 0.0884-0.44217v-2.7288h-3.2721v-1.8066h8.0854z" style="paint-order:stroke fill markers"/>
     <path d="m265.74 33.125h-2.0719v-0.84644h-5.824v0.84644h-2.0593v-10.359h9.9552zm-2.0719-2.792v-5.6219h-5.824v5.6219z" style="paint-order:stroke fill markers"/>
    </g>
    <g transform="scale(.82893 1.2064)" stroke-width="1.7894" style="paint-order:stroke fill markers" aria-label="馬出九大病院前">
     <path d="m286.21 31.04q0 1.4781-0.35374 1.895-0.35374 0.4169-1.5539 0.4169h-1.4023l-0.50534-1.6045h1.3012q0.41691 0 0.51797-0.13897 0.0758-0.10107 0.0758-0.54324v-1.4908h-8.3508v-7.2769h9.9805v1.655h-3.828v0.54324h3.1836v1.2507h-3.1836v0.51797h3.1836v1.2507h-3.1836v0.51797h4.1185zm-6.0262-6.5315v-0.55587h-2.2488v0.55587zm0 1.7434v-0.50534h-2.2488v0.50534zm0 1.7813v-0.53061h-2.2488v0.53061zm2.3625 3.689q-0.31584-0.87171-0.63167-1.5413l1.2886-0.46744q0.34111 0.68221 0.66958 1.5918zm-0.42954 0.69484-1.5286 0.46744q-0.42954-1.5413-0.83381-2.552l1.4402-0.46744q0.48007 1.137 0.92224 2.552zm-4.5102-2.2361-0.0505 0.17687 1.5034-0.40427q0.4169 1.1244 0.75801 2.6657l-1.5918 0.42954q-0.40428-1.8824-0.66958-2.6657-0.44217 1.6929-0.98541 2.9057l-1.7308-0.72011q0.61904-1.2254 1.0991-2.8299z" style="paint-order:stroke fill markers"/>
     <path d="m298.74 33.263h-1.9835v-0.65694h-6.7337v0.65694h-1.9835v-5.205h1.9835v2.6783h2.2867v-3.2342h-3.9038v-4.6112h1.9203v2.8046h2.0087v-3.6384h2.0845v3.6384h2.1098v-2.8046h1.9203v4.6112h-4.0806v3.2342h2.3877v-2.6783h1.9835z" style="paint-order:stroke fill markers"/>
     <path d="m305.55 26.302q-0.0884 2.5899-0.83381 4.1059-0.89698 1.8066-3.0699 3.0447l-1.5413-1.4908q2.0593-0.98541 2.8299-2.3877 0.60641-1.137 0.66958-3.2721h-3.1078v-1.8319h3.1205v-2.4256h1.9456v2.4256h3.7269v6.5315q0 0.21477 0.0758 0.25267t0.21476 0.0379h0.26531q0.31584 0 0.40427-0.54324 0.0505-0.3032 0.0884-1.8445l1.7687 0.70748q-0.0884 1.6929-0.1895 2.173-0.1516 0.78328-0.59377 1.0612-0.42954 0.29057-1.5034 0.29057h-0.82118q-0.97278 0-1.2886-0.24004-0.39164-0.29057-0.39164-1.276v-5.3187z" style="paint-order:stroke fill markers"/>
     <path d="m318.72 28.918q-1.3897 2.7415-4.5354 4.4723l-1.377-1.4781q2.0087-1.0107 3.2216-2.4383 1.1623-1.3771 1.4655-2.9562h-4.3586v-1.8824h4.4596v-2.5646h1.9835v2.5646h4.687v1.8824h-4.4596q0.46744 1.7182 1.6676 3.0573 1.1496 1.2886 3.1584 2.413l-1.4781 1.415q-3.171-1.9329-4.4344-4.4849z" style="paint-order:stroke fill markers"/>
     <path d="m332.12 28.678h-0.99805v1.9456q0.84645-1.0865 0.99805-1.9456zm2.7415 1.516v-1.516h-1.137q0.36637 0.75801 1.137 1.516zm-7.5548-1.2507q-0.61904 0.50534-1.7687 1.2254l-0.39164-1.8698q1.5286-0.80854 2.2614-1.3139v-3.9922h3.4237v-1.0233h2.0087v1.0233h4.0174v1.655h-7.6559v0.49271h7.7443v1.5034h-3.0826v0.64431h2.7541v4.6744q0 0.85908-0.32847 1.1244-0.32847 0.2653-1.3265 0.2653h-1.415l-0.50534-1.5287h1.377q0.27794 0 0.35374-0.06317 0.0884-0.0758 0.0884-0.3411v-0.82118l-0.83381 0.89698q-0.51797-0.54324-0.90961-1.0865-0.41691 0.82118-1.1623 1.6929l-0.83382-0.85908v2.1224h-1.756v-6.0767h2.6909v-0.64431h-2.8552v0.99805q0 1.794-0.3411 3.0826-0.35374 1.3644-1.2128 2.7036l-1.895-1.0486q1.2886-1.7687 1.5539-3.4363zm0.0253-2.5141-1.377 0.55587q-0.3032-1.3897-0.70747-2.5267l1.3897-0.44217q0.35374 0.89698 0.69484 2.413z" style="paint-order:stroke fill markers"/>
     <path d="m344.54 25.165h3.2973v-0.59377h-3.2973zm-4.2322 4.6365q0.39163 0 0.5685-0.10107 0.25267-0.16424 0.25267-0.61904 0-0.98541-0.66957-2.4635l0.61904-2.7415h-0.77064zm5.1924-0.39164q-0.20213 1.3771-0.68221 2.3119-0.50534 0.98541-1.4655 1.7561l-1.5539-1.2381q0.98541-0.64431 1.4655-1.4402 0.42954-0.73274 0.56851-1.8319h-1.0738q0.0126 0.12634 0.0126 0.31584 0 1.276-0.51798 1.7813-0.50534 0.49271-1.6297 0.48007l-0.31583-1.0612v2.8173h-1.7308v-11.143h4.2828v0.77064h2.3625v-1.0359h1.8698v1.0359h2.5141v2.7541h-0.96014v1.0107h-4.9523v-1.0107h-0.92224v-1.9582l-0.83381 2.7415q0.51797 0.97278 0.73274 1.9708v-1.0991h7.0242v1.6297h-2.0972v2.2867q0 0.24004 0.17687 0.24004h0.0884q0.20213 0 0.24003-0.24004 0.0379-0.24004 0.0379-1.4781l1.5413 0.42954q0 1.4529-0.10107 2.0214-0.1137 0.65694-0.46744 0.87171-0.3032 0.1895-1.0865 0.1895h-0.96014q-0.73275 0-0.98542-0.25267t-0.25267-1.0233v-3.0447h-1.7434z" style="paint-order:stroke fill markers"/>
     <path d="m361.78 31.331q0 1.1749-0.36637 1.5539t-1.4781 0.379h-1.3012l-0.42954-1.7561h1.1749q0.32847 0 0.4169-0.1137 0.10107-0.1137 0.10107-0.42954v-5.5082h1.8824zm-2.7162-0.44217h-1.6803v-5.0913h1.6803zm-2.3751 0.87171q0 0.94751-0.3032 1.2128-0.29057 0.27794-1.137 0.27794h-0.93488l-0.51797-1.6929h0.68221q0.2274 0 0.3032-0.05053 0.0884-0.06317 0.0884-0.29057v-0.51797h-1.5034v2.6151h-1.9203v-7.8707h5.2429zm-1.8192-4.207v-0.56851h-1.5034v0.56851zm0 1.8192v-0.58114h-1.5034v0.58114zm-1.3012-6.1778q-0.24004-0.45481-0.53061-0.92224l1.9329-0.379q0.40427 0.72011 0.69484 1.3012h1.8698q0.3411-0.64431 0.61904-1.3392l1.9456 0.24004q-0.26531 0.64431-0.49271 1.0991h2.653v1.7434h-11.383v-1.7434z" style="paint-order:stroke fill markers"/>
    </g>
    <g stroke-width="3" style="paint-order:stroke fill markers" aria-label="貝塚">
     <path d="m389.99 38.213q-2.9018 1.9698-7.1379 2.9653l-1.758-2.7747q3.8972-0.82605 5.9941-1.991h-3.516v-14.128h14.742v14.128h-3.4313q2.1604 1.1649 6.0577 1.991l-1.758 2.7747q-4.1514-0.93195-7.2226-2.9653l1.9698-1.8004h-5.9094zm5.0622-11.755v-1.292h-8.2181v1.292zm0 3.5795v-1.2285h-8.2181v1.2285zm0 3.6854v-1.3344h-8.2181v1.3344z" style="paint-order:stroke fill markers"/>
     <path d="m411.78 25.844h6.7778v-0.80487h-6.7778zm-4.342 8.3876q0.91077-0.33889 1.7156-0.74132v0.27535q2.5205-1.2497 5.0834-3.4525-0.0635-0.16944-0.19062-0.48716-2.0545 1.5674-4.2573 2.6899l-1.5674-1.8851q2.6688-1.0802 4.448-2.3511h-2.5417v-1.292h-1.1438v2.4781h-1.5462zm1.7156 2.4993q-2.6899 1.2708-6.566 2.1392l-0.48716-3.2618q1.1014-0.14826 2.2452-0.42361v-5.7188h-1.8639v-3.0924h1.8639v-4.4691h3.0924v4.4691h1.2285v-4.0879h13.026v4.7021h-1.3556v1.292h-3.7913q0.5507 1.292 0.91077 2.5205 1.1014-0.99549 2.0969-2.2663l2.3511 1.7156q-1.2285 1.5038-2.9441 2.9441 1.3132 1.6309 3.283 3.283l-1.6309 2.7535q-1.2073-1.1861-2.1392-2.3934v0.12708q0.0212 2.3511-0.69896 3.1983-0.61424 0.74132-2.224 0.74132h-2.2875l-0.74132-2.5629h1.8427q0.82604 0 1.0378-0.5507 0.0847-0.25417 0.0847-1.2497 0-0.36007-0.0212-0.78369-2.0122 2.1604-5.4646 4.1938l-1.8427-2.0333q4.0455-2.0757 6.9261-4.8927-0.0212-0.1059-0.14826-0.57188-2.4993 2.1393-5.0622 3.4948l-0.72015-0.78369z" style="paint-order:stroke fill markers"/>
    </g>
   </g>
   <g stroke="#f8b90f" stroke-width="2.2403" style="paint-order:stroke fill markers" aria-label="名島">
    <path d="m460.78 30.3q1.2021 0.71176 2.1036 1.3761 1.3128-0.98064 2.5149-2.2144h-3.717q-0.45869 0.45869-0.90156 0.83829zm8.9681 10.123h-2.4358v-0.79084h-5.5992v0.79084h-2.4358v-4.0807q-1.0281 0.45869-2.246 0.93319l-1.6608-2.0087q2.9736-0.83829 5.4252-2.2302-0.93319-0.75921-1.8189-1.3602-0.64849 0.44287-1.55 0.96482l-1.9296-1.6133q4.1282-2.1669 5.8838-4.8241l2.5623 0.25307q-0.26888 0.49032-0.55359 0.93319h4.9348v2.0087q-1.8506 2.3409-4.144 4.0649h5.5675zm-2.4358-2.9261v-1.9771h-5.5992v1.9771z" style="paint-order:stroke fill markers"/>
    <path d="m482.1 38.667h0.25307q0.55359 0 0.68012-0.12653 0.14235-0.12654 0.14235-0.68012v-1.1388h-4.8716v1.1863h1.5184v-0.83829h2.2776zm3.9226-3.9384h-10.755v0.49032h10.328v2.8787q0 1.6291-0.50614 2.1036-0.50613 0.49032-2.1036 0.49032h-0.99646l-0.33215-0.91738h-7.3074v0.58522h-2.4042v-3.2899h2.4042v0.83829h1.4868v-1.1863h-3.0685v-9.3319h3.9384q0.30052-0.66431 0.50614-1.3286l2.4516 0.30052q-0.0949 0.31634-0.36379 1.0281h5.0614v5.2512h-9.0947v0.4745h10.755zm-4.1124-5.1879v-0.53777h-6.6431v0.53777zm0 1.8031v-0.53777h-6.6431v0.53777z" style="paint-order:stroke fill markers"/>
   </g>
   <g transform="scale(.87314 1.1453)" stroke="#f8b90f" stroke-width="2.6649" style="paint-order:stroke fill markers" aria-label="西鉄千早">
    <path d="m589.72 64.281h1.2982v-1.6933h-1.2982zm5.6632 4.4591v-1.9191h-1.8438v1.3923q0 0.39511 0.13171 0.47037 0.0753 0.05644 0.47037 0.05644zm-9.7084 3.8006h9.7084v-1.3923h-2.5024q-1.1289 0-1.5052-0.28222-0.35748-0.30104-0.35748-1.223v-2.8222h-1.2982q-0.0376 1.6369-0.26341 2.6717-0.28222 1.3359-1.016 2.5024l-2.6717-0.99718q1.223-1.5052 1.4676-4.1769h-1.5616zm9.7084 2.5588h-9.7084v0.97837h-2.8034v-11.797h4.1016v-1.6933h-4.8542v-2.6905h16.896v2.6905h-5.1552v1.6933h4.3274v11.797h-2.8034z" style="paint-order:stroke fill markers"/>
    <path d="m603.66 63.697h2.5964q-0.7714-0.92192-1.2794-1.7874-0.508 0.8843-1.317 1.7874zm2.5776 9.4262q1.4676-0.16933 2.5212-0.31985v0.97837q2.2013-1.9756 3.0104-4.779h-2.8787v-2.5024h3.3114q0.0376-0.508 0.0376-1.1665v-0.95956h-1.2042q-0.18815 0.90311-0.39511 1.6181l-2.3142-0.508q0.33867-1.0348 0.62089-2.3707l-1.317 2.0132-0.11289-0.11289v0.84667h-1.2606v0.82785h2.2202v2.333h-2.239v2.8787q0.41392-1.1665 0.75259-2.5776l1.8627 0.56444q-0.31986 1.223-0.92193 2.7093l-1.6933-0.47037zm2.5212 2.1261q-3.1985 0.60207-7.6388 0.94074l-0.52681-2.6341q1.4111-0.05644 3.0292-0.18815v-0.90311l-1.9756 0.65852q-0.47037-1.8815-0.94074-3.048l1.9756-0.69615q0.48919 1.1853 0.94074 2.9163v-3.2738h-2.7093v-2.333h2.6905v-0.82785h-1.2794v-0.84667q-0.41393 0.35748-0.80904 0.65852l-0.99718-2.6153q1.9003-1.4487 2.9916-3.6877h2.8598q0.84667 1.9191 2.6529 3.4243 0.28222-1.4487 0.41392-3.0292l2.2578 0.45156q-0.0941 0.84667-0.20696 1.6181h0.84666v-2.5212h2.5776v2.5212h2.7658v2.54h-2.7658v1.2982q0 0.52682-0.0188 0.82785h3.1421v2.5024h-3.0104q1.1101 2.7846 3.2362 4.8166l-1.3359 2.6341q-2.2954-2.333-3.4243-4.7037-1.3547 2.8787-3.5184 4.7037l-1.223-1.6745z" style="paint-order:stroke fill markers"/>
    <path d="m636.68 68.89h-7.0367v7.2061h-3.048v-7.2061h-6.8862v-2.8034h6.8862v-2.7281q-2.3142 0.20696-4.779 0.31985l-1.2794-2.8034q7.112-0.18815 12.945-1.3923l1.5804 2.6717q-2.5776 0.508-5.4187 0.86548v3.0668h7.0367z" style="paint-order:stroke fill markers"/>
    <path d="m655.53 72.296h-6.9803v3.8382h-3.1233v-3.8382h-6.9615v-2.6905h6.9615v-1.0724h-5.5127v-8.8241h14.186v8.8241h-5.5504v1.0724h6.9803zm-4.2898-9.1816v-0.92193h-8.4667v0.92193zm0 3.0856v-0.92192h-8.4667v0.92192z" style="paint-order:stroke fill markers"/>
   </g>
   <g stroke="#f00" stroke-width="3" style="paint-order:stroke fill markers" aria-label="吉塚">
    <path d="m231.04 99.098h-7.7521v1.6733h6.8626v2.9018h-17.008v-2.9018h6.7355v-1.6733h-7.5827v-3.0288h7.5827v-1.991h3.4101v1.991h7.7521zm-1.525 14.022h-3.2618v-0.95313h-9.2136v0.95313h-3.2406v-8.2605h15.716zm-3.2618-3.6007v-1.9274h-9.2136v1.9274z" style="paint-order:stroke fill markers"/>
    <path d="m242.5 98.166h6.7778v-0.80487h-6.7778zm-4.342 8.3876q0.91077-0.33889 1.7156-0.74132v0.27535q2.5205-1.2497 5.0834-3.4525-0.0635-0.16944-0.19063-0.48715-2.0545 1.5674-4.2573 2.6899l-1.5674-1.8851q2.6688-1.0802 4.448-2.3511h-2.5417v-1.292h-1.1438v2.4781h-1.5462zm1.7156 2.4993q-2.69 1.2708-6.566 2.1392l-0.48716-3.2618q1.1014-0.14827 2.2452-0.42362v-5.7188h-1.8639v-3.0924h1.8639v-4.4691h3.0924v4.4691h1.2285v-4.0879h13.026v4.7021h-1.3556v1.292h-3.7913q0.5507 1.292 0.91077 2.5205 1.1014-0.9955 2.0969-2.2663l2.351 1.7156q-1.2285 1.5038-2.9441 2.9441 1.3132 1.6309 3.283 3.283l-1.6309 2.7535q-1.2073-1.1861-2.1392-2.3934v0.12708q0.0212 2.3511-0.69896 3.1983-0.61424 0.74132-2.224 0.74132h-2.2875l-0.74133-2.5629h1.8427q0.82605 0 1.0379-0.5507 0.0847-0.25417 0.0847-1.2497 0-0.36007-0.0212-0.78369-2.0122 2.1604-5.4646 4.1938l-1.8427-2.0334q4.0455-2.0757 6.9261-4.8927-0.0212-0.1059-0.14827-0.57188-2.4993 2.1392-5.0622 3.4948l-0.72015-0.78369z" style="paint-order:stroke fill markers"/>
   </g>
   <g stroke="#f00" stroke-width="2.1963" style="paint-order:stroke fill markers" aria-label="箱崎">
    <path d="m331.79 129.31h-2.326v-0.66678h-1.8298v0.66678h-2.295v-9.5055h6.4507zm-2.326-6.9934v-0.63577h-1.8298v0.63577zm0 2.2174v-0.65128h-1.8298v0.65128zm0 2.2019v-0.68229h-1.8298v0.68229zm1.4266-7.4896-2.3415 0.51171q-0.2481-0.69779-0.58925-1.4886h-0.44968q-0.49621 0.79083-0.99242 1.4421l-2.1554-0.88388q0.21709-0.26361 0.44968-0.55823h-1.1475q0.18608 0.41868 0.41868 0.97691l-1.256 0.29462h0.15507v1.3336h1.8918v2.0469h-1.9228v0.0155q0.82185 1.0079 2.2795 2.2484l-1.2715 1.8298q-0.49621-0.49621-1.0079-1.1165v3.4269h-2.295v-3.0393q-0.68228 0.99242-1.4731 1.8453l-1.287-1.9538q1.5662-1.4731 2.6361-3.2564h-2.1244v-2.0469h2.2329v-1.3336h1.1165q-0.21709-0.62026-0.4962-1.2715h-0.2326q-0.4807 0.72881-1.0544 1.4731l-2.1089-0.88387q1.4266-1.6902 2.295-3.551l2.3725 0.29462q-0.12405 0.27912-0.37216 0.74431h3.0548v1.3801q0.79083-1.101 1.4111-2.419l2.3415 0.29462q-0.10855 0.2326-0.37216 0.74431h3.7216v1.9228h-1.8608q0.27912 0.60475 0.43418 0.97691z" style="paint-order:stroke fill markers"/>
    <path d="m341.34 120.9h5.0396q-1.7212-0.51172-2.5431-1.5972-0.77532 1.0389-2.4966 1.5972zm-1.5972-1.3801v1.3801h0.74432zm0 7.8773h-3.7991v0.9459h-1.9383v-10.42h1.5196v7.3191h0.51171v-9.7846h1.7677v9.7846h0.51172v-7.3191h1.4266v1.4731q1.9383-0.4962 2.481-1.1785h-2.0624v-1.8608h2.6671q0.0465-0.43418 0.062-0.99242h2.0158q-0.0155 0.60476-0.062 0.99242h2.6826v1.8608h-2.2484q0.4807 0.4807 1.287 0.74431 0.35665 0.12405 1.4886 0.37216l-0.82185 1.5662h0.80634v1.8608h-0.91488v4.5744q0 1.2095-0.31013 1.6127-0.34114 0.46519-1.3956 0.46519h-1.4421l-0.49621-1.7677h-1.4111v0.7133h-1.8143v-5.0241h4.2643v3.9852h0.093q0.43418 0 0.43418-0.54273v-3.8921h-5.3032zm3.1323-1.5506v-0.83735h-0.91489v0.83735z" style="paint-order:stroke fill markers"/>
   </g>
   <g stroke="#e51" stroke-width="1.9792" style="paint-order:stroke fill markers" aria-label="祇園">
    <g fill="#fff" stroke="#e51" stroke-linecap="round" stroke-linejoin="round" stroke-width="2.059" style="paint-order:markers stroke fill" aria-label="祇園">
     <path d="m186.8 166.76v1.7462h-4.8865v-1.7462zm-5.0219 6.6868v-1.6379h1.3536v1.6649q0 2.9644-0.70388 4.5075-0.4873-0.54145-1.1641-0.89339 0.51438-1.2724 0.51438-3.6412zm5.1843-2.1793h-1.7462v7.8104h-1.7462v-7.8104h-1.8815v-1.7597h5.3738zm-0.0406 0.51438v4.8053h-1.3401v-4.8053zm2.3688-0.81217h1.3536q-0.0406-1.0964-0.0406-2.3147-0.12183 0.0271-0.59559 0.13536-0.46023 0.10829-0.71742 0.1489zm5.049 1.8138h-1.7868q0.16243 3.7766 0.60913 3.8172 0.1895 0 0.25718-1.6514 0.20304 0.27073 0.66327 0.60913 0.46023 0.32487 0.75803 0.47376-0.24365 1.7056-0.73096 2.3688-0.47376 0.66327-1.0152 0.66327-1.11-0.0135-1.6514-1.5702-0.54145-1.5702-0.71742-4.7106h-1.4348v3.8307l1.5837-0.32487 0.1895 1.7326q-0.83924 0.21657-2.4094 0.58205-1.5566 0.36547-1.7732 0.41962l-0.4873-1.8815q0.16243-0.0271 0.50084-0.0812 0.3384-0.0541 0.51437-0.0812v-9.949l1.1912 0.32486q2.5989-0.59559 4.0338-1.3265l1.6379 1.4754q-1.0288 0.41962-1.7732 0.6362-0.0271 1.489 0 2.829h1.8409z" style="paint-order:markers stroke fill"/>
     <path d="m202.69 169.81v0.35194h2.8561v1.0829h-7.499v-1.0829h2.829v-0.35194h-2.247v-1.0423h2.247v-0.46023h1.8138v0.46023h2.3824v1.0423zm0.59559 3.1675v-0.47377h-2.9644v0.47377zm-0.39255 0.94753-0.0812 0.0677q0.29779 0.24365 0.55498 0.41962 0.4873-0.35194 0.64973-0.4873zm-5.1843 2.9103h8.1894v-8.6361h-8.1894v6.9576q1.7191-0.50083 2.8967-1.2318h-1.9221v-2.3824h6.362v2.1928l0.71742 0.47377q-0.60913 0.46022-1.2318 0.79863 0.86631 0.32486 1.3265 0.41962-0.60913 0.54144-1.0152 1.2453-1.2453-0.37901-2.3553-1.2453v1.1641h-1.7597v-1.0829q-1.0152 0.56852-1.9627 0.90693-0.44669-0.67681-1.0558-1.2318zm-1.8815-10.436h12.034v12.697h-1.9627v-0.44669h-8.1894v0.44669h-1.8815z" style="paint-order:markers stroke fill"/>
    </g>
   </g>
  </g>
  <g stroke-linecap="round" stroke-linejoin="round">
   <path d="m548.46 104.48a7.9186 7.9186 0 0 1-8.4191 7.3841 7.9186 7.9186 0 0 1-7.3842-8.4189 7.9186 7.9186 0 0 1 8.4188-7.3844 7.9186 7.9186 0 0 1 7.3845 8.4187" fill="#f00" stroke="#fff" stroke-width="3" style="paint-order:stroke markers fill"/>
   <g>
    <g fill="#fffffd" stroke="#f00" stroke-width="3" style="paint-order:stroke fill markers" aria-label="千早">
     <path d="m540.05 127.94h-7.9216v8.1122h-3.4313v-8.1122h-7.7521v-3.1559h7.7521v-3.0712q-2.6052 0.23299-5.3799 0.36007l-1.4403-3.1559q8.0063-0.21181 14.572-1.5674l1.7792 3.0077q-2.9018 0.57187-6.1 0.97431v3.4524h7.9216z" style="paint-order:stroke fill markers"/>
     <path d="m561.28 131.77h-7.858v4.3209h-3.516v-4.3209h-7.8369v-3.0288h7.8369v-1.2073h-6.206v-9.9338h15.97v9.9338h-6.2483v1.2073h7.858zm-4.8292-10.336v-1.0378h-9.5313v1.0378zm0 3.4736v-1.0379h-9.5313v1.0379z" style="paint-order:stroke fill markers"/>
    </g>
    <g fill="#e51" stroke="#fffffe" stroke-width="1.9792" style="paint-order:stroke fill markers" aria-label="地下鉄空港線">
     <path d="m326.34 156.52q-1.7327 0.8384-4.206 1.4113l-0.30742-2.1519q0.67073-0.0978 1.4253-0.27947v-3.7169h-1.1877v-2.0401h1.1877v-3.0322h1.9423v3.0322h1.1318v0.60085l0.54496-0.11178v-2.7667h1.9842v2.3755l0.76854-0.15371v-2.9903h2.0122v2.599l2.7248-0.54496v4.4715q0 1.2017-0.29344 1.565-0.27947 0.36331-1.2017 0.36331h-0.83841l-0.47509-2.0122h0.54496q0.34934 0 0.34934-0.43317v-1.4253l-0.90827 0.18166v4.723h-1.9144v-4.3318l-0.76854 0.16768v4.3597q0 0.37728 0.13974 0.4751 0.0978 0.0699 0.50304 0.0699h2.0261q0.82443 0 0.99211-0.27946 0.0838-0.16768 0.25152-1.4672l2.0541 0.64278q-0.18165 2.11-0.64277 2.613-0.50304 0.54496-2.3894 0.54496h-2.9484q-1.1179 0-1.5231-0.37728-0.44715-0.40523-0.44715-1.551v-4.6252l-0.8384 0.16768v-0.81046h-0.83841v3.1021q0.64278-0.25152 1.1458-0.50304z" style="paint-order:stroke fill markers"/>
     <path d="m348.55 149.45h-5.5894v1.034q2.6829 1.3973 4.6392 2.6969l-1.2716 1.9982q-1.579-1.1598-3.3676-2.1938v6.0225h-2.2637v-9.5578h-4.5414v-2.1659h12.394z" style="paint-order:stroke fill markers"/>
     <path d="m352.07 149.87h1.9283q-0.57291-0.6847-0.9502-1.3275-0.37728 0.65675-0.97813 1.3275zm1.9144 7.0007q1.0899-0.12576 1.8724-0.23755v0.72662q1.6349-1.4672 2.2357-3.5492h-2.1379v-1.8585h2.4593q0.028-0.37728 0.028-0.86635v-0.71264h-0.8943q-0.13973 0.67072-0.29344 1.2017l-1.7187-0.37728q0.25152-0.76854 0.46112-1.7606l-0.97814 1.4952-0.0838-0.0838v0.6288h-0.93621v0.61483h1.6489v1.7327h-1.6628v2.1379q0.30742-0.86635 0.55894-1.9144l1.3834 0.41921q-0.23755 0.90827-0.6847 2.0122l-1.2576-0.34934zm1.8724 1.579q-2.3755 0.44714-5.6732 0.69867l-0.39126-1.9563q1.048-0.0419 2.2497-0.13973v-0.67073l-1.4672 0.48907q-0.34933-1.3973-0.69867-2.2637l1.4672-0.51702q0.36331 0.88033 0.69867 2.1659v-2.4314h-2.0122v-1.7327h1.9982v-0.61483h-0.95019v-0.6288q-0.30742 0.26549-0.60086 0.48906l-0.74059-1.9423q1.4113-1.076 2.2218-2.7388h2.124q0.6288 1.4253 1.9702 2.5432 0.2096-1.076 0.30741-2.2497l1.6768 0.33536q-0.0699 0.6288-0.15371 1.2017h0.6288v-1.8724h1.9144v1.8724h2.0541v1.8864h-2.0541v0.96416q0 0.39126-0.014 0.61483h2.3336v1.8585h-2.2357q0.82443 2.0681 2.4034 3.5772l-0.99212 1.9563q-1.7048-1.7327-2.5432-3.4934-1.0061 2.1379-2.613 3.4934l-0.90827-1.2436z" style="paint-order:stroke fill markers"/>
     <path d="m374.26 150.93v-0.97814h-1.6908v1.3135q0 0.26549 0.0419 0.30741 0.0559 0.0419 0.33536 0.0419h0.43318q0.32138 0 0.4192-0.25152 0.014-0.0419 0.0838-0.54496zm2.1659 7.9089h-12.269v-1.9982h4.9326v-1.1318h-3.9265v-1.8305h0.47509l-1.076-1.4253q1.565-0.44715 2.2637-0.88033 0.93622-0.58688 1.2017-1.6209h-1.7048v1.4393h-2.124v-3.3536h4.9047v-1.3694h2.2777v1.3694h5.0025v3.0742h-1.4952l0.85238 0.25152q-0.19563 1.3135-0.64278 1.7048-0.32138 0.27946-1.2017 0.27946h-2.082q-0.90827 0-1.1179-0.19562-0.19563-0.19563-0.19563-0.95019v-2.2497h-2.096l1.579 0.55893q-0.72662 2.3615-3.5912 3.3676h8.9569v1.8305h-3.9405v1.1318h5.0164z" style="paint-order:stroke fill markers"/>
     <path d="m384.94 150.27h1.565v-0.8943h-1.565zm3.13 6.1902h-3.9265v0.51702q0 0.30741 0.27946 0.30741h3.13q0.47509 0 0.51701-0.82443zm-4.8488-2.11q-0.36331 0.4192-0.58688 0.64278h3.5912v-0.64278zm1.6069-2.2637q-0.11178 0.19563-0.44715 0.71264h2.5851q-0.1537-0.23755-0.44715-0.71264zm-3.8008 2.9903q-0.65675 2.2497-1.6069 3.9824l-1.8724-0.89429q1.0201-1.6069 1.8445-4.4016l1.076 0.61483-0.0978-0.11179q1.551-1.1039 2.3056-2.1798h-1.7746v-0.19563l-0.92225 1.3414q-1.2157-0.90827-2.4034-1.4672l1.0899-1.6768q1.0061 0.43318 2.2358 1.2856v-1.1039h1.9982v-0.8943h-1.5371v-1.2297l-1.1179 1.6209q-1.1318-0.88032-2.3615-1.4672l1.1039-1.6768q1.062 0.48907 2.3755 1.4393v-0.48907h1.5371v-0.97814h2.0401v0.97814h1.565v-0.97814h2.0541v0.97814h1.6209v1.8026h-1.6209v0.8943h2.0541v1.8165h-1.9423q0.75456 1.076 2.3056 2.1798l-1.2856 1.6069q-0.85238-0.72662-1.5231-1.4812v1.4253l1.8724 0.48907q-0.0978 1.6349-0.48907 2.1519-0.43317 0.57291-1.7048 0.57291h-4.1222q-0.92224 0-1.2017-0.27947-0.32139-0.32139-0.32139-1.4253v-1.9283q-0.32138 0.30742-0.53099 0.4751z" style="paint-order:stroke fill markers"/>
     <path d="m399.73 155.24q-0.33536 1.062-0.93621 2.082h0.79648q0.23755 0 0.33536-0.0978 0.0978-0.0978 0.0978-0.44715v-3.8986h-2.5711v-4.3038q-0.71264 1.062-1.7886 2.4873l0.92224-0.34934q0.40523 0.99211 0.92224 2.599h2.2218zm-5.0444-2.8785q0.61483-0.0559 0.99211-0.11178-0.0978-0.27947-0.30742-0.79649zm0.90827 1.4952v0.78251l1.2017-0.37728q0.18165 1.3834 0.37728 2.2637 0.74059-0.82443 1.062-1.6489h-1.076v-0.96416l-0.88033 0.29344-0.12576-0.44715q-0.29344 0.0559-0.55893 0.0978zm6.3439-7.2662q-0.16768 0.58688-0.26549 0.8943h2.613v5.3937h-2.4733v0.028q0.2096 0.75456 0.60086 1.4532 0.68469-0.81046 1.048-1.4672l1.3414 1.0201q-0.64278 1.034-1.4253 1.8305 0.62881 0.74059 1.551 1.5091l-1.1738 1.6489q-1.2297-1.2017-1.9423-2.3475v1.1318q0 0.88032-0.27947 1.1877-0.27946 0.32139-0.97813 0.32139h-1.2995l-0.50304-1.8166q-0.48907 0.82443-1.1039 1.565l-1.1039-1.4672-0.46112 0.18165q-0.30742-1.4113-0.48907-3.0182v4.6531h-1.8305v-5.1981q-0.92224 0.0978-1.8445 0.13974l-0.2096-1.7327q0.51702 0 0.85238-0.014 0.26549-0.32138 0.76854-0.96416-0.75457-0.90827-1.6349-1.8026l1.0061-1.8585q0.23755 0.26549 0.37729 0.43317 0.50304-0.89429 0.97813-1.9423l1.6349 0.6847q-0.68469 1.2017-1.551 2.5432l0.32139 0.39125q0.71265-1.0201 1.3694-2.1659l1.6209 0.76854v-1.09h2.082q0.18165-0.46113 0.34933-1.1039zm0.40523 3.0462v-0.51702h-2.9344v0.51702zm0 1.7746v-0.48907h-2.9344v0.48907zm-8.6216 3.2977q-0.22357 2.0681-0.69867 3.8147l-1.3973-0.82443q0.4751-1.4253 0.69867-3.2977z" style="paint-order:stroke fill markers"/>
    </g>
    <g transform="rotate(-45)" fill="#07c" stroke="#fffffe" stroke-width="1.9792" style="paint-order:stroke fill markers" aria-label="地下鉄箱崎線">
     <path d="m11.657 183.24q-1.7327 0.8384-4.206 1.4113l-0.30741-2.1519q0.67072-0.0978 1.4253-0.27947v-3.7169h-1.1877v-2.0401h1.1877v-3.0322h1.9423v3.0322h1.1318v0.60085l0.54496-0.11178v-2.7667h1.9842v2.3755l0.76854-0.15371v-2.9903h2.0122v2.599l2.7248-0.54496v4.4715q0 1.2017-0.29344 1.565-0.27947 0.36331-1.2017 0.36331h-0.8384l-0.4751-2.0122h0.54496q0.34934 0 0.34934-0.43317v-1.4253l-0.90827 0.18165v4.723h-1.9144v-4.3318l-0.76854 0.16768v4.3597q0 0.37728 0.13973 0.4751 0.09781 0.0699 0.50304 0.0699h2.0261q0.82443 0 0.99211-0.27946 0.08384-0.16768 0.25152-1.4672l2.0541 0.64278q-0.18165 2.11-0.64278 2.613-0.50304 0.54496-2.3895 0.54496h-2.9484q-1.1179 0-1.5231-0.37728-0.44715-0.40523-0.44715-1.551v-4.6252l-0.8384 0.16768v-0.81046h-0.8384v3.1021q0.64278-0.25152 1.1458-0.50304z" style="paint-order:stroke fill markers"/>
     <path d="m33.861 176.17h-5.5894v1.034q2.6829 1.3973 4.6392 2.6969l-1.2716 1.9982q-1.579-1.1598-3.3676-2.1938v6.0225h-2.2637v-9.5578h-4.5414v-2.1659h12.394z" style="paint-order:stroke fill markers"/>
     <path d="m37.382 176.59h1.9283q-0.57291-0.6847-0.95019-1.3275-0.37728 0.65675-0.97814 1.3275zm1.9144 7.0007q1.0899-0.12576 1.8724-0.23755v0.72662q1.6349-1.4672 2.2357-3.5492h-2.1379v-1.8585h2.4593q0.02795-0.37728 0.02795-0.86635v-0.71264h-0.8943q-0.13973 0.67072-0.29344 1.2017l-1.7187-0.37728q0.25152-0.76854 0.46112-1.7606l-0.97814 1.4952-0.08384-0.0838v0.6288h-0.93622v0.61483h1.6489v1.7327h-1.6628v2.1379q0.30742-0.86635 0.55894-1.9144l1.3834 0.41921q-0.23755 0.90827-0.6847 2.0122l-1.2576-0.34934zm1.8724 1.579q-2.3755 0.44715-5.6732 0.69867l-0.39126-1.9563q1.048-0.0419 2.2497-0.13974v-0.67072l-1.4672 0.48907q-0.34934-1.3973-0.69867-2.2637l1.4672-0.51702q0.36331 0.88033 0.69867 2.1659v-2.4314h-2.0122v-1.7327h1.9982v-0.61483h-0.95019v-0.6288q-0.30742 0.26549-0.60086 0.48906l-0.74059-1.9423q1.4113-1.076 2.2218-2.7388h2.124q0.6288 1.4253 1.9702 2.5432 0.2096-1.076 0.30742-2.2497l1.6768 0.33536q-0.06987 0.6288-0.15371 1.2017h0.6288v-1.8724h1.9144v1.8724h2.0541v1.8864h-2.0541v0.96416q0 0.39126-0.01397 0.61483h2.3336v1.8585h-2.2357q0.82443 2.0681 2.4034 3.5772l-0.99211 1.9563q-1.7048-1.7327-2.5432-3.4934-1.0061 2.1379-2.613 3.4934l-0.90827-1.2436z" style="paint-order:stroke fill markers"/>
     <path d="m61.43 185.83h-2.096v-0.60085h-1.6489v0.60085h-2.0681v-8.5657h5.8129zm-2.096-6.302v-0.57291h-1.6489v0.57291zm0 1.9982v-0.58689h-1.6489v0.58689zm0 1.9842v-0.61483h-1.6489v0.61483zm1.2856-6.7492-2.11 0.46112q-0.22358-0.6288-0.53099-1.3414h-0.40523q-0.44715 0.71265-0.8943 1.2995l-1.9423-0.79648q0.19563-0.23755 0.40523-0.50305h-1.034q0.16768 0.37729 0.37728 0.88033l-1.1318 0.26549h0.13973v1.2017h1.7048v1.8445h-1.7327v0.014q0.74059 0.90827 2.0541 2.0261l-1.1458 1.6489q-0.44715-0.44715-0.90827-1.0061v3.0881h-2.0681v-2.7388q-0.61483 0.8943-1.3275 1.6628l-1.1598-1.7606q1.4113-1.3275 2.3755-2.9344h-1.9144v-1.8445h2.0122v-1.2017h1.0061q-0.19563-0.55893-0.44715-1.1458h-0.2096q-0.43318 0.65675-0.95019 1.3275l-1.9004-0.79649q1.2856-1.5231 2.0681-3.1999l2.1379 0.2655q-0.11179 0.25152-0.33536 0.67072h2.7528v1.2436q0.71264-0.99211 1.2716-2.1798l2.11 0.2655q-0.09781 0.2096-0.33536 0.67072h3.3536v1.7327h-1.6768q0.25152 0.54497 0.39126 0.88033z" style="paint-order:stroke fill markers"/>
     <path d="m70.038 178.26h4.5414q-1.551-0.46112-2.2916-1.4393-0.69867 0.93622-2.2497 1.4393zm-1.4393-1.2436v1.2436h0.67072zm0 7.0985h-3.4235v0.85237h-1.7467v-9.3901h1.3694v6.5954h0.46112v-8.8172h1.593v8.8172h0.46112v-6.5954h1.2856v1.3275q1.7467-0.44715 2.2357-1.062h-1.8585v-1.6768h2.4034q0.04192-0.39126 0.05589-0.8943h1.8165q-0.01397 0.54496-0.05589 0.8943h2.4174v1.6768h-2.0261q0.43318 0.43318 1.1598 0.67073 0.32139 0.11178 1.3414 0.33536l-0.74059 1.4113h0.72662v1.6768h-0.82443v4.1222q0 1.0899-0.27947 1.4532-0.30742 0.4192-1.2576 0.4192h-1.2995l-0.44715-1.593h-1.2716v0.64278h-1.6349v-4.5274h3.8427v3.5912h0.08384q0.39126 0 0.39126-0.48907v-3.5073h-4.7789zm2.8226-1.3973v-0.75457h-0.82443v0.75457z" style="paint-order:stroke fill markers"/>
     <path d="m85.045 181.96q-0.33536 1.062-0.93622 2.082h0.79648q0.23755 0 0.33536-0.0978 0.09781-0.0978 0.09781-0.44715v-3.8986h-2.5711v-4.3038q-0.71264 1.062-1.7886 2.4873l0.92224-0.34934q0.40523 0.99211 0.92224 2.599h2.2218zm-5.0444-2.8785q0.61483-0.0559 0.99211-0.11178-0.09781-0.27947-0.30742-0.79649zm0.90827 1.4952v0.78251l1.2017-0.37729q0.18165 1.3834 0.37728 2.2637 0.74059-0.82443 1.062-1.6489h-1.076v-0.96416l-0.88032 0.29344-0.12576-0.44715q-0.29344 0.0559-0.55894 0.0978zm6.3439-7.2662q-0.16768 0.58688-0.26549 0.8943h2.613v5.3937h-2.4733v0.028q0.2096 0.75456 0.60086 1.4532 0.6847-0.81046 1.048-1.4672l1.3414 1.0201q-0.64278 1.034-1.4253 1.8305 0.6288 0.74059 1.551 1.5091l-1.1738 1.6489q-1.2297-1.2017-1.9423-2.3475v1.1318q0 0.88032-0.27947 1.1877-0.27947 0.32139-0.97814 0.32139h-1.2995l-0.50304-1.8166q-0.48907 0.82443-1.1039 1.565l-1.1039-1.4672-0.46112 0.18165q-0.30742-1.4113-0.48907-3.0182v4.6531h-1.8305v-5.1981q-0.92224 0.0978-1.8445 0.13974l-0.2096-1.7327q0.51702 0 0.85238-0.014 0.26549-0.32139 0.76854-0.96416-0.75456-0.90827-1.6349-1.8026l1.0061-1.8585q0.23755 0.26549 0.37728 0.43317 0.50304-0.89429 0.97814-1.9423l1.6349 0.6847q-0.6847 1.2017-1.551 2.5432l0.32139 0.39125q0.71264-1.0201 1.3694-2.1659l1.6209 0.76854v-1.0899h2.082q0.18166-0.46113 0.34934-1.1039zm0.40523 3.0462v-0.51702h-2.9344v0.51702zm0 1.7746v-0.48907h-2.9344v0.48907zm-8.6216 3.2977q-0.22357 2.0681-0.69867 3.8147l-1.3973-0.82443q0.4751-1.4253 0.69867-3.2977z" style="paint-order:stroke fill markers"/>
    </g>
   </g>
   <path d="m545.23 20.33a4.6874 4.6874 0 0 1-4.9837 4.371 4.6874 4.6874 0 0 1-4.3711-4.9836 4.6874 4.6874 0 0 1 4.9835-4.3712 4.6874 4.6874 0 0 1 4.3713 4.9834" fill="#ff0" stroke="#f00" stroke-width="5" style="paint-order:stroke markers fill"/>
   <g>
    <g transform="matrix(.87314 0 0 1.1453 -62.733 -20.101)" fill="#ff0" stroke="#f00" stroke-width="2.6649" style="paint-order:stroke fill markers" aria-label="なみきスクエア">
     <path d="m647.92 22.633q-1.4487-1.1853-2.5588-1.9003-0.22577 1.6557-1.4299 2.4836-1.2042 0.84667-3.1421 0.84667-2.2013 0-3.4807-0.94074-1.3547-1.016-1.3547-2.8222 0-1.7121 1.2606-2.747 1.2606-1.0348 3.3302-1.0348 0.99718 0 1.9944 0.16933v-3.9699h-1.223v-2.6717h6.3218v2.6717h-2.239v4.8354q1.2042 0.52681 2.5212 1.4676zm-7.4695-9.9154h-3.1797q-1.1101 4.3462-3.1233 9.3886h-3.1985q2.0132-4.4215 3.2738-9.3886h-2.2766v-2.6717h2.8975q0.26341-1.3359 0.41393-2.2201h3.048q-0.11288 0.65852-0.43274 2.2201h2.5776zm2.0884 6.7169v-0.09407q-1.016-0.33867-1.9191-0.33867-2.032 0-2.032 1.223 0 1.2606 2.032 1.2606 1.9191 0 1.9191-2.0508z" style="paint-order:stroke fill markers"/>
     <path d="m667 19.566q-1.1477-0.77141-2.0132-1.2794-0.62089 2.5964-2.1449 3.9699-1.7122 1.5616-4.8166 1.8062v-2.6529q1.9756-0.35748 2.9916-1.4487 0.95956-1.016 1.3358-3.0292-1.9191-0.82785-3.6124-1.1289-0.15052 0.65852-0.47037 1.9003-0.86548 3.0104-1.9003 4.3086-1.0724 1.3735-2.7658 1.3735-1.3923 0-2.333-1.0536-1.016-1.1477-1.016-3.1044 0-2.5024 1.6181-4.2145 1.6745-1.7874 4.4967-2.0132 0.16933-0.8843 0.35748-2.1449h-4.7978v-2.6905h8.2409q-0.41393 2.7658-0.84667 4.9671 1.6181 0.24459 3.3302 0.86548 0.0564-1.2418 0.0564-3.6877h2.841q0 3.1609-0.1317 4.9107 0.90311 0.47037 1.5804 0.90311zm-11.195-3.857q-1.2982 0.28222-2.1073 1.3547-0.73377 0.99718-0.73377 2.1637 0 0.56444 0.24459 0.8843 0.24459 0.31985 0.56444 0.31985 0.94074 0 2.032-4.7225z" style="paint-order:stroke fill markers"/>
     <path d="m685.02 15.333h-3.1797q1.0348 2.2013 1.9379 3.8947l-3.1985 0.30104q-1.5616-0.90311-4.1769-0.90311-3.0292 0-3.0292 1.1853 0 0.71496 1.0536 1.0348 1.0724 0.31985 3.5372 0.31985 2.747 0 5.9267-0.62089v2.8222q-3.0668 0.54563-6.4158 0.54563-3.5184 0-5.287-0.8843-1.9191-0.95955-1.9191-3.0856 0-1.6933 1.3923-2.6717 1.3923-0.99718 3.857-0.99718 2.0884 0 3.8947 0.45156-0.22578-0.41392-0.67733-1.2982h-8.937v-2.3895h7.8081q-0.16933-0.35748-0.48919-1.0536h-7.319v-2.4083h6.2653q-0.0565-0.11289-0.73378-1.7874h3.2926q0.18815 0.508 0.60207 1.5616h5.795v2.3895h-4.7978q0.16933 0.3763 0.48918 1.1101h4.3086z" style="paint-order:stroke fill markers"/>
     <path d="m704.14 23.932q-4.1393-1.317-6.4535-5.287-3.8006 4.0452-9.2192 5.1176v-2.9539q3.3114-0.8843 5.9267-3.2361 2.9163-2.6341 3.857-6.1713h-8.8618v-2.8787h12.587q-0.24459 4.1016-2.239 7.413 1.1853 3.0292 4.4027 4.7601z" style="paint-order:stroke fill markers"/>
     <path d="m720.54 18.137q-3.2926 5.1741-11.082 5.6444v-2.8034q9.1064-0.92192 10.028-9.652h-6.6792q-0.80904 1.9756-2.3518 3.4619-1.5616 1.5428-3.5748 2.2013v-3.0668q2.841-1.825 3.5748-5.4375h12.361q0 6.0772-2.2766 9.652z" style="paint-order:stroke fill markers"/>
     <path d="m741.71 23.047h-15.936v-2.8222h6.2089v-8.4667h-5.2117v-2.8222h13.904v2.8222h-5.5316v8.4667h6.5664z" style="paint-order:stroke fill markers"/>
     <path d="m760.45 8.9926q0 4.4215-2.5776 6.9991-2.0884 2.1073-5.5127 2.6905-1.825 4.1204-6.6981 5.1741v-2.8975q4.7037-1.731 4.7037-7.4318v-0.82785h2.9351v0.99718q0 0.92192-0.11289 1.8438 3.1421-0.95956 3.8006-4.271h-11.891v-2.8787h15.353z" style="paint-order:stroke fill markers"/>
    </g>
    <g fill="#f8b90f" stroke="#fffffe" stroke-width="1.9792" style="paint-order:stroke fill markers" aria-label="西鉄貝塚線">
     <path d="m577.76 49.741h0.96416v-1.2576h-0.96416zm4.206 3.3117v-1.4253h-1.3694v1.034q0 0.29344 0.0978 0.34934 0.0559 0.04192 0.34933 0.04192zm-7.2103 2.8226h7.2103v-1.034h-1.8585q-0.83841 0-1.1179-0.2096-0.2655-0.22357-0.2655-0.90827v-2.096h-0.96416q-0.028 1.2157-0.19563 1.9842-0.2096 0.99211-0.75457 1.8585l-1.9842-0.74059q0.90827-1.1179 1.0899-3.1021h-1.1598zm7.2103 1.9004h-7.2103v0.72662h-2.082v-8.7613h3.0462v-1.2576h-3.6051v-1.9982h12.548v1.9982h-3.8287v1.2576h3.2139v8.7613h-2.082z" style="paint-order:stroke fill markers"/>
     <path d="m588.12 49.307h1.9283q-0.57291-0.6847-0.95019-1.3275-0.37729 0.65675-0.97814 1.3275zm1.9144 7.0007q1.0899-0.12576 1.8724-0.23755v0.72662q1.6349-1.4672 2.2357-3.5492h-2.1379v-1.8585h2.4593q0.028-0.37728 0.028-0.86635v-0.71264h-0.8943q-0.13973 0.67072-0.29344 1.2017l-1.7187-0.37728q0.25152-0.76854 0.46112-1.7606l-0.97813 1.4952-0.0838-0.08384v0.6288h-0.93622v0.61483h1.6489v1.7327h-1.6628v2.1379q0.30742-0.86635 0.55894-1.9144l1.3834 0.4192q-0.23755 0.90827-0.6847 2.0122l-1.2576-0.34934zm1.8724 1.579q-2.3755 0.44715-5.6732 0.69867l-0.39126-1.9563q1.048-0.04192 2.2497-0.13973v-0.67072l-1.4672 0.48907q-0.34933-1.3973-0.69867-2.2637l1.4672-0.51702q0.36331 0.88032 0.69867 2.1659v-2.4314h-2.0122v-1.7327h1.9982v-0.61483h-0.95019v-0.6288q-0.30742 0.26549-0.60086 0.48907l-0.74059-1.9423q1.4113-1.076 2.2218-2.7388h2.124q0.6288 1.4253 1.9702 2.5432 0.2096-1.076 0.30741-2.2497l1.6768 0.33536q-0.0699 0.6288-0.15371 1.2017h0.62881v-1.8724h1.9144v1.8724h2.0541v1.8864h-2.0541v0.96416q0 0.39126-0.014 0.61483h2.3336v1.8585h-2.2358q0.82443 2.0681 2.4034 3.5772l-0.99211 1.9563q-1.7048-1.7327-2.5432-3.4934-1.0061 2.1379-2.613 3.4934l-0.90827-1.2436z" style="paint-order:stroke fill markers"/>
     <path d="m605.7 56.895q-1.9144 1.2995-4.709 1.9563l-1.1598-1.8305q2.5711-0.54496 3.9545-1.3135h-2.3196v-9.3203h9.7255v9.3203h-2.2637q1.4253 0.76854 3.9964 1.3135l-1.1598 1.8305q-2.7388-0.61483-4.7649-1.9563l1.2995-1.1877h-3.8986zm3.3396-7.7552v-0.85238h-5.4217v0.85238zm0 2.3615v-0.81046h-5.4217v0.81046zm0 2.4314v-0.88032h-5.4217v0.88032z" style="paint-order:stroke fill markers"/>
     <path d="m620.07 48.734h4.4715v-0.53099h-4.4715zm-2.8646 5.5335q0.60086-0.22358 1.1318-0.48907v0.18165q1.6628-0.82443 3.3536-2.2777-0.0419-0.11179-0.12576-0.32139-1.3554 1.034-2.8087 1.7746l-1.034-1.2436q1.7606-0.71264 2.9344-1.551h-1.6768v-0.85238h-0.75457v1.6349h-1.0201zm1.1318 1.6489q-1.7746 0.8384-4.3318 1.4113l-0.32139-2.1519q0.72661-0.09781 1.4812-0.27947v-3.7728h-1.2297v-2.0401h1.2297v-2.9484h2.0401v2.9484h0.81046v-2.6969h8.5936v3.1021h-0.8943v0.85238h-2.5012q0.3633 0.85238 0.60085 1.6628 0.72662-0.65675 1.3834-1.4952l1.551 1.1318q-0.81046 0.99211-1.9423 1.9423 0.86635 1.076 2.1659 2.1659l-1.076 1.8165q-0.79648-0.78251-1.4113-1.579v0.08384q0.014 1.551-0.46113 2.11-0.40523 0.48907-1.4672 0.48907h-1.5091l-0.48907-1.6908h1.2157q0.54496 0 0.68469-0.36331 0.0559-0.16768 0.0559-0.82443 0-0.23755-0.014-0.51702-1.3275 1.4253-3.6051 2.7667l-1.2157-1.3414q2.6689-1.3694 4.5693-3.2279-0.014-0.06987-0.0978-0.37728-1.6489 1.4113-3.3396 2.3056l-0.4751-0.51702z" style="paint-order:stroke fill markers"/>
     <path d="m635.78 54.673q-0.33537 1.062-0.93622 2.082h0.79648q0.23755 0 0.33536-0.09781 0.0978-0.09781 0.0978-0.44715v-3.8986h-2.5711v-4.3038q-0.71264 1.062-1.7886 2.4873l0.92224-0.34934q0.40523 0.99211 0.92225 2.5991h2.2218zm-5.0444-2.8785q0.61483-0.05589 0.99211-0.11179-0.0978-0.27947-0.30741-0.79648zm0.90827 1.4952v0.78251l1.2017-0.37728q0.18166 1.3834 0.37728 2.2637 0.74059-0.82443 1.062-1.6489h-1.076v-0.96416l-0.88032 0.29344-0.12576-0.44715q-0.29345 0.05589-0.55894 0.09781zm6.3439-7.2662q-0.16768 0.58688-0.26549 0.8943h2.613v5.3937h-2.4733v0.02795q0.2096 0.75456 0.60086 1.4532 0.6847-0.81046 1.048-1.4672l1.3414 1.0201q-0.64278 1.034-1.4253 1.8305 0.62881 0.74059 1.551 1.5091l-1.1738 1.6489q-1.2297-1.2017-1.9423-2.3475v1.1318q0 0.88032-0.27947 1.1877-0.27946 0.32139-0.97813 0.32139h-1.2995l-0.50304-1.8165q-0.48907 0.82443-1.1039 1.565l-1.1039-1.4672-0.46112 0.18165q-0.30742-1.4113-0.48907-3.0183v4.6531h-1.8305v-5.1981q-0.92224 0.09781-1.8445 0.13973l-0.20961-1.7327q0.51702 0 0.85238-0.01397 0.2655-0.32139 0.76854-0.96416-0.75456-0.90827-1.6349-1.8026l1.0061-1.8585q0.23754 0.2655 0.37728 0.43318 0.50304-0.8943 0.97814-1.9423l1.6349 0.6847q-0.68469 1.2017-1.551 2.5432l0.32138 0.39126q0.71265-1.0201 1.3694-2.1659l1.6209 0.76854v-1.0899h2.082q0.18165-0.46112 0.34933-1.1039zm0.40523 3.0462v-0.51702h-2.9344v0.51702zm0 1.7746v-0.48907h-2.9344v0.48907zm-8.6216 3.2977q-0.22357 2.0681-0.69867 3.8147l-1.3973-0.82443q0.4751-1.4253 0.69867-3.2977z" style="paint-order:stroke fill markers"/>
    </g>
    <g fill="#f00" stroke="#fffffe" stroke-width="1.9792" style="paint-order:stroke fill markers" aria-label="JR鹿児島本線">
     <path d="m397.42 118.37q0 1.9004-1.2297 2.8366-1.076 0.83841-2.9763 0.83841-1.9004 0-2.9903-0.86636-1.2297-0.96416-1.2297-2.8506v-1.9702h2.3615v1.7886q0 1.8305 1.8585 1.8305 1.8305 0 1.8305-1.7746v-7.5876h2.3755z" style="paint-order:stroke fill markers"/>
     <path d="m402.27 115.52h2.5991q0.78251 0 1.2017-0.48907 0.34933-0.40523 0.34933-0.96417 0-0.55893-0.34933-0.92224-0.4192-0.43318-1.2017-0.43318h-2.5991zm7.1823 6.3858h-2.613l-1.3834-3.2418q-0.48907-1.1458-1.9423-1.1458h-1.2436v4.3876h-2.3755v-11.291h5.2819q1.5371 0 2.5292 0.76854 1.1458 0.88033 1.1458 2.5711 0 2.2078-2.0401 3.0043 0.69867 0.44715 1.1039 1.3834z" style="paint-order:stroke fill markers"/>
     <path d="m419.88 119.81v0.39126q0 0.27946 0.0559 0.34933 0.0699 0.0699 0.30741 0.0699h0.4751q0.32138 0 0.40523-0.13974 0.11178-0.19562 0.11178-0.90827-0.74059 0.13974-1.3554 0.23755zm-6.4278-4.737v0.72662h1.1598v-0.72662zm1.1598-2.2078h-1.1598v0.6847h1.1598zm3.0462 0h-1.2017v0.6847h1.2017zm-0.11179 9.1666q-2.1798 0.37728-4.2339 0.55894l-0.29344-1.9842q0.30742-0.014 0.93622-0.028v-3.2698h-0.54496q-0.13974 3.144-1.1738 5.4217l-2.1519-1.1598q0.8384-1.4253 1.1039-3.3396 0.16768-1.2017 0.16768-3.661v-3.5492h4.4575v-1.0061h2.3056v1.0061h4.8208v1.8445h-3.3396v0.6847h3.13v3.7588h-2.8506v0.83841q1.2157-0.19563 2.3056-0.4751l0.71265 1.551q-0.65675 0.15371-1.593 0.33536l1.8026 0.51702q-0.0838 1.4532-0.40523 1.9144-0.32139 0.4751-1.2017 0.4751h-2.3894q-0.72662 0-0.93622-0.18166-0.25152-0.2096-0.25152-0.96416v-4.0104h-2.0122v0.65675h1.6069v1.6349h-1.6069v0.8384q0.96416-0.0978 1.6349-0.22357zm3.2139-6.2321v-0.72662h-1.1598v0.72662zm-3.1021 0v-0.72662h-1.2017v0.72662z" style="paint-order:stroke fill markers"/>
     <path d="m436.46 117.1h-7.6155v-6.7352h7.6155zm-2.1938-4.0802v-0.85238h-3.2279v0.85238zm0 2.3475v-0.85238h-3.2279v0.85238zm2.8226 3.9405q0 2.082-0.47509 2.655-0.4192 0.50304-1.9423 0.50304h-1.9004q-0.86635 0-1.2017-0.2655-0.32139-0.26549-0.32139-1.076v-3.7169h2.1798v2.7248q0 0.27947 0.0559 0.34933 0.0699 0.0559 0.34933 0.0559h0.57291q0.44715 0 0.54496-0.29344 0.11179-0.29344 0.11179-1.551zm-9.3342-1.9423h-2.2218v-7.1684h2.2218zm2.4454 0.39125q-0.0978 1.8864-1.048 3.0462-0.97813 1.2157-3.0602 1.9144l-1.7327-1.7187q2.0261-0.61483 2.7528-1.2436 0.82443-0.72662 0.90827-2.1659l0.014-0.25152 2.1798 0.16768z" style="paint-order:stroke fill markers"/>
     <path d="m447.84 120.9h0.22358q0.48907 0 0.60085-0.11179 0.12576-0.11179 0.12576-0.60086v-1.0061h-4.3038v1.048h1.3414v-0.74059h2.0122zm3.4654-3.4794h-9.5019v0.43318h9.1246v2.5432q0 1.4393-0.44714 1.8585-0.44715 0.43317-1.8585 0.43317h-0.88032l-0.29344-0.81046h-6.4557v0.51702h-2.124v-2.9065h2.124v0.74059h1.3135v-1.048h-2.7108v-8.2443h3.4794q0.2655-0.58688 0.44715-1.1738l2.1659 0.26549q-0.0838 0.27947-0.32139 0.90827h4.4715v4.6392h-8.0347v0.4192h9.5019zm-3.6331-4.5833v-0.47509h-5.8688v0.47509zm0 1.593v-0.47509h-5.8688v0.47509z" style="paint-order:stroke fill markers"/>
     <path d="m459.84 115.99v2.4314h1.9563q-1.076-1.1738-1.9563-2.4314zm-4.1501 2.655q-0.93622 0.99211-1.9982 1.9004l-1.6908-1.3973q3.1021-2.3755 5.0304-5.2819h-4.3038v-1.9563h5.0304v-1.9004h2.1379v1.9004h5.0723v1.9563h-4.3038q1.9423 2.9204 5.0444 5.2819l-1.6908 1.3973q-1.048-0.8943-1.9842-1.8724v1.6768h-2.1379v2.1519h-2.1379v-2.1519h-2.0681zm2.124-2.613q-0.86635 1.2436-1.9144 2.3894h1.9144z" style="paint-order:stroke fill markers"/>
     <path d="m474.33 118.62q-0.33537 1.062-0.93622 2.082h0.79648q0.23755 0 0.33536-0.0978 0.0978-0.0978 0.0978-0.44715v-3.8986h-2.5711v-4.3038q-0.71264 1.062-1.7886 2.4873l0.92224-0.34934q0.40523 0.99211 0.92225 2.599h2.2218zm-5.0444-2.8785q0.61483-0.0559 0.99211-0.11179-0.0978-0.27946-0.30741-0.79648zm0.90827 1.4952v0.78251l1.2017-0.37729q0.18166 1.3834 0.37728 2.2637 0.74059-0.82444 1.062-1.6489h-1.076v-0.96416l-0.88032 0.29344-0.12576-0.44715q-0.29345 0.0559-0.55894 0.0978zm6.3439-7.2662q-0.16768 0.58688-0.26549 0.8943h2.613v5.3937h-2.4733v0.0279q0.2096 0.75457 0.60086 1.4532 0.6847-0.81046 1.048-1.4672l1.3414 1.0201q-0.64278 1.034-1.4253 1.8305 0.62881 0.7406 1.551 1.5091l-1.1738 1.6489q-1.2297-1.2017-1.9423-2.3475v1.1318q0 0.88032-0.27947 1.1877-0.27946 0.32138-0.97813 0.32138h-1.2995l-0.50304-1.8165q-0.48907 0.82443-1.1039 1.565l-1.1039-1.4672-0.46112 0.18165q-0.30742-1.4113-0.48907-3.0182v4.6531h-1.8305v-5.1981q-0.92224 0.0978-1.8445 0.13974l-0.20961-1.7327q0.51702 0 0.85238-0.014 0.2655-0.32139 0.76854-0.96416-0.75456-0.90827-1.6349-1.8026l1.0061-1.8585q0.23754 0.26549 0.37728 0.43317 0.50304-0.89429 0.97814-1.9423l1.6349 0.6847q-0.68469 1.2017-1.551 2.5432l0.32138 0.39125q0.71265-1.0201 1.3694-2.1659l1.6209 0.76854v-1.0899h2.082q0.18165-0.46113 0.34933-1.1039zm0.40523 3.0462v-0.51702h-2.9344v0.51702zm0 1.7746v-0.48907h-2.9344v0.48907zm-8.6216 3.2977q-0.22357 2.0681-0.69867 3.8147l-1.3973-0.82443q0.4751-1.4253 0.69867-3.2977z" style="paint-order:stroke fill markers"/>
    </g>
   </g>
  </g>
 </g>
</svg>
