<?xml version="1.0" encoding="UTF-8"?>
<svg width="305.56mm" height="235.21mm" version="1.1" viewBox="0 0 305.56 235.21" xmlns="http://www.w3.org/2000/svg" xmlns:xlink="http://www.w3.org/1999/xlink">
 <defs>
  <linearGradient id="linearGradient1140">
   <stop stop-color="#07c" offset="0"/>
   <stop stop-color="#e51" offset="1"/>
  </linearGradient>
  <linearGradient id="linearGradient1058" x1="60.29" x2="60.281" y1="288.45" y2="295.49" gradientTransform="translate(-10.801 -10.202)" gradientUnits="userSpaceOnUse" xlink:href="#linearGradient1140"/>
  <linearGradient id="linearGradient1107" x1="61.603" x2="61.604" y1="278.88" y2="283.62" gradientTransform="translate(-9.2806 -8.8193)" gradientUnits="userSpaceOnUse" xlink:href="#linearGradient1140"/>
 </defs>
 <g transform="translate(-15.098 -100.76)">
  <path d="m57.089 126.88s14.46 5.4905 15.11 19.379c0.37551 8.0187 4.096 26.144 5.0364 33.409 0.95054 7.3436-0.86421 3.8129 2.3107 9.2556 6.316 10.827 17.401 24.49 17.401 24.49s-20.366-11.472-25.393-27.584-15.037-44.294-15.037-44.294l-6.3602-4.6872z" fill="#00f"/>
  <g fill="none">
   <path d="m55.479 132.22 6.2567 6.6477s8.6029 62.176 45.752 77.817c28.937 10.167 26.786 1.9552 37.54 36.367 25.613 22.289 26.786 2.3462 53.573 30.892 52.791 44.188 61.784 70.387 65.304 67.65" stroke="#00f" stroke-width="5"/>
   <path d="m12.177 299.32 16.59-3.802 9.7469-6.7744 23.641-27.72c17.661-13.673 31.883-14.455 42.167-0.48389l25.646 23.296 22.19 19.494s9.4013 14.24 17.351 14.517c7.9496 0.27651 39.471 1.3134 39.471 1.3134s3.838 1.0129 6.8781 4.5451c2.9897 3.4736 16.971 15.363 16.971 15.363" stroke="#e51"/>
   <path d="m62.155 261.03 70.44-83.091s-0.96778-8.5717 4.5624-15.623c5.5302-7.0509 42.167-63.597 42.167-63.597" stroke="#07c"/>
   <g stroke="#000">
    <path d="m330.77 142.78s-115.28 23.689-119.07 27.471c-10.977 8.4969-28.937 11.242-28.937 11.242s-48.324 23.545-52.351 23.218c-4.408 0.7184-21.654-19.503-21.654-19.503l-9.5879-9.2869s-14.871-7.8113-17.143-8.0238-19.692 4.6293-28.647 7.7983c-12.694 6.1658-44.147 32.772-44.147 32.772" stroke-width="1.5"/>
    <path d="m204.63 156.37s19.079 37.052 26.268 40.094c2.8342 7.4657 97.607 129.41 97.607 129.41"/>
    <path d="m178.46 256.57 86.616-99.129"/>
    <path d="m180.71 220.01 15.642 1.7597 5.5723-2.6395 34.314 31.674s8.9275-3.4626 11.069-7.8303c2.1413-4.3677 11.318-8.0068 11.318-8.0068"/>
   </g>
   <path d="m172.55 341.63 1.106-37.329 4.9771-47.836 1.7973-38.849s6.9325-38.394 14.793-51.707c6.1787-15.365 16.176-66.777 16.176-66.777" stroke="#f00" stroke-width="2"/>
   <path d="m204.86 100.35-20.725 74.298-10.558 43.797-4.3014 12.318-42.232 41.255-39.691 27.764-17.988 8.2119-2.6714 4.1341-5.6144 2.9865-5.7916 0.70023-44.97 24.44" stroke="#000" stroke-width="1.5"/>
  </g>
  <g stroke-linejoin="round">
   <g stroke-linecap="round">
    <path d="m202.31 175.21c-0.52021 1e-3 -0.95248 0.40138-0.99414 0.91992 0 0-1.3352 16.309-2.6172 24.453-0.13455 0.41546-0.23637 0.53802-0.50976 0.80078-0.28448 0.27343-0.77463 0.6705-1.3106 1.3692-1.0718 1.3973-2.3033 3.9258-3.75 9.8828-1.875 7.7207-1.875 7.7207-1.875 7.7207-0.16722 0.5264 0.12398 1.0887 0.65039 1.2559 0.52697 0.16706 1.0895-0.12514 1.2559-0.65234 0 0 0.0359-0.12062 1.9121-7.8535 1.4141-5.8282 2.5844-8.0831 3.3926-9.1367 0.4041-0.5268 0.72411-0.77228 1.1094-1.1426 0.38527-0.37029 0.81307-0.91297 1.0527-1.6836l0.0215-0.0703 0.0117-0.0703c1.3174-8.3122 2.6484-24.711 2.6484-24.711 0.045-0.55003-0.36408-1.0326-0.91407-1.0781-0.0279-3e-3 -0.056-4e-3 -0.084-4e-3z" color="#000000" color-rendering="auto" dominant-baseline="auto" fill="#ff0" image-rendering="auto" shape-rendering="auto" solid-color="#000000" stop-color="#000000" stroke="#f00" stroke-width="2" style="font-feature-settings:normal;font-variant-alternates:normal;font-variant-caps:normal;font-variant-east-asian:normal;font-variant-ligatures:normal;font-variant-numeric:normal;font-variant-position:normal;font-variation-settings:normal;inline-size:0;isolation:auto;mix-blend-mode:normal;paint-order:stroke fill markers;shape-margin:0;shape-padding:0;text-decoration-color:#000000;text-decoration-line:none;text-decoration-style:solid;text-indent:0;text-orientation:mixed;text-transform:none;white-space:normal"/>
    <rect x="167.81" y="304.33" width="11.585" height="25.418" fill="#fff" stroke="#000" stroke-width="1.747" style="paint-order:stroke markers fill"/>
    <rect transform="rotate(16.357)" x="232.97" y="80.416" width="2.9725" height="21.637" fill="#fff" stroke="#000" stroke-width="1.747" style="paint-order:stroke markers fill"/>
   </g>
   <g stroke-width="2">
    <g transform="rotate(45)" fill="#000080" stroke="#fff" style="paint-order:markers stroke fill" aria-label="三笠川">
     <path d="m352 53.796h9.8979v1.919h-9.8979zm0.93424 4.1157h7.9158v1.919h-7.9158zm-1.6665 4.3177h11.299v1.9316h-11.299z" style="paint-order:markers stroke fill"/>
     <path d="m367.19 62.76h3.0426q0.71961-1.7044 1.0857-3.5097h-3.232q0.68175 1.4266 0.92162 2.9795zm8.6102-9.0142v1.6034h-1.818q0.41662 0.69437 0.53025 0.97212l-1.717 0.6565q-0.202-0.63124-0.84587-1.6286h-0.34087q-0.53025 0.7575-0.95949 1.2246h0.17675v0.97212h4.3935v1.7044h-3.7243l1.8559 0.44187q-0.59337 1.8432-1.111 3.0679h3.5097v1.7549h-11.766v-1.7549h3.1184q-0.12625-1.4014-0.83324-3.0552l1.6539-0.4545h-3.3582v-1.7044h4.3177v-0.97212h1.2877q-0.69437-0.51762-1.3256-0.85849 0.32824-0.26512 0.41662-0.36612h-1.1236q0.3535 0.73224 0.42925 0.98474l-1.6286 0.66912q-0.13888-0.56812-0.64387-1.5781-0.66912 1.1236-1.1489 1.6917-0.69437-0.56812-1.5907-1.0226 1.3635-1.3509 2.1084-3.6612l1.8054 0.4545q-0.12625 0.37875-0.34087 0.85849h2.6891v0.95949q0.74487-0.97212 1.212-2.2725l1.8432 0.46712q-0.101 0.29037-0.3535 0.84587z" style="paint-order:markers stroke fill"/>
     <path d="m378.24 53.19h1.9316v4.5197q0 1.1236-0.0631 1.9695-0.0505 0.83324-0.23987 1.8432-0.17675 0.99737-0.59337 1.8685-0.404 0.87112-1.0352 1.5907-0.26512-0.31562-0.77012-0.73224-0.49237-0.41662-0.87111-0.64387 0.69437-0.77012 1.0731-1.818 0.37875-1.0605 0.46712-1.9569 0.101-0.89637 0.101-2.1336zm3.8758 0.56812h1.919v9.7717h-1.919zm3.7243-0.58075h1.9821v11.628h-1.9821z" style="paint-order:markers stroke fill"/>
    </g>
    <g fill="#fff" stroke="#f00" style="paint-order:markers stroke fill" aria-label="吉塚駅">
     <path d="m216.66 147.92h-5.1762v1.515h5.1762zm-7.1204 3.6233v-5.3025h9.1909v5.3025h-2.0705v-0.37874h-5.1762v0.37874zm10.302-9.052h-4.7848v1.1489h3.9516v1.7801h-9.8348v-1.7801h3.8885v-1.1489h-4.7596v-1.7549h4.7596v-1.4645h1.9947v1.4645h4.7848z" style="paint-order:markers stroke fill"/>
     <path d="m224.47 146.3 0.1515 0.58074q1.414-0.49237 2.4618-1.2625l-0.21462-0.21462q-0.77012 0.42925-1.5907 0.75749-0.54287-0.75749-1.0731-1.2246 1.4645-0.4545 2.7522-1.1867h-1.4014v-1.4771h-0.79537v1.616h-0.95949v2.6891zm3.6107 3.2698q0.303-0.303 0.303-1.0479-0.75749 0.606-1.8937 1.313 0.53025 0.0379 0.93425 0.0379 0.44187 0 0.65649-0.303zm2.828-8.2314h-4.4945v0.8585h4.4945zm1.0984 2.5502 1.111 1.414q-0.23988 0.17675-0.74487 0.54287-0.49237 0.36612-0.71962 0.53025 0.70699 1.5781 1.6286 2.4618-0.80799 0.63125-1.3887 1.5276-1.7422-1.9569-2.6765-6.5018-0.58074 0.4545-0.98474 0.71962 0.83324 0.73225 1.3256 1.7044 0.50499 0.97212 0.59337 1.8432 0.0884 0.87112-0.101 1.616-0.17675 0.74487-0.606 1.1236-0.61862 0.64387-1.6412 0.66912-0.30299 0.0126-1.01-0.0126-0.0505-0.97212-0.41662-1.6286-0.93424 0.56812-1.8054 0.95949-0.41662-0.79537-1.0352-1.3887 1.1741-0.39137 2.4366-1.111 1.2751-0.71962 2.02-1.4392-0.0757-0.17675-0.11363-0.2525-1.1489 0.83324-2.4114 1.4519-0.31563-0.45449-0.7575-0.92161l0.17675 0.71962q-1.8054 0.89636-3.6738 1.7422l-0.51762-1.8559q0.4545-0.1515 1.3509-0.50499v-3.4087h-1.0731v-1.7296h1.0731v-2.6891h1.7549v2.6891h0.84587v-2.4492h8.1304v2.5628h-0.98475v1.4771h-1.0226q0.0757 0.31562 0.31562 1.1236 0.60599-0.55549 0.92162-0.98474z" style="paint-order:markers stroke fill"/>
     <path d="m234.52 150.87-0.93424-0.49237q0.61862-0.87112 0.70699-2.929l0.98475 0.17675q-0.0757 1.1489-0.22725 1.9442-0.1515 0.78274-0.53025 1.3004zm0.77012-3.1057 0.78275-0.0757q0.16412 1.2625 0.10099 2.3987l-0.80799 0.101q0.0757-1.0605-0.0757-2.424zm0.88374-0.0631 0.74487-0.12625q0.31563 1.0731 0.37875 2.0957l-0.79537 0.1515q-0.0252-0.8585-0.32825-2.121zm7.7643-6.2872h-1.9695v2.626h1.9695zm-8.0294 3.636v0.5555h0.58075v-0.5555zm0.58075-3.838h-0.58075v0.505h0.58075zm0 2.4492v-0.54287h-0.58075v0.54287zm9.153 2.0957h-1.7549q0.64387 3.1815 2.3482 4.2925-0.31562 0.26513-0.68174 0.71962-0.3535 0.4545-0.54287 0.808-1.1489-0.83325-1.7927-2.2725-0.63124-1.4392-0.99737-3.5476h-0.26512q-0.12625 3.9895-1.3256 5.8327-0.22725-0.202-0.66912-0.47974-0.42925-0.27775-0.7575-0.41663-0.0379 0.13888-0.1515 0.27775-0.29037 0.41662-0.80799 0.51762-0.404 0.0757-1.1489 0.0505-0.0505-0.79537-0.37874-1.4392 0.29037 0.0379 0.66912 0.0379 0.20199 0 0.34087-0.17675 0.12625-0.202 0.21462-0.89637l-0.39137 0.13888q-0.0884-0.66912-0.505-1.6665l0.69437-0.23987q0.17675 0.39137 0.303 0.73224 0.0252-0.64387 0.0505-0.98474h-3.737v-7.3351h5.05v1.5024h-1.4266v0.505h1.2372v1.4014h-1.2372v0.54287h1.2372v1.3887h-1.2372v0.5555h1.7044q-0.0126 0.41662-0.0252 0.60599-0.12625 3.1689-0.36612 4.1788 0.59337-1.0731 0.77011-2.4745 0.18938-1.414 0.18938-3.1815v-5.0373h5.3908z" style="paint-order:markers stroke fill"/>
    </g>
    <g fill="#fff" stroke="#f00" style="paint-order:markers stroke fill" aria-label="博多駅">
     <path d="m158.56 316.66h-1.1867v7.4361h-1.8306v-7.4361h-1.3004v-1.6917h1.3004v-3.1562h1.8306v3.1562h1.1867zm4.3935 5.757v-1.2877h-2.121q0.82062 0.75749 1.1362 1.212l-0.34087 0.23987q0.41662 0.0126 1.0984 0.0126 0.22725 0 0.22725-0.17675zm-2.424-4.7848v0.404h0.92162v-0.404zm0-1.4771v0.37874h0.92162v-0.37874zm3.7117 0h-1.01v0.37874h1.01zm-1.01 1.8811h1.01v-0.404h-1.01zm3.2951 1.616v1.4771h-1.7927v1.3382q0 0.59337-0.13888 0.90899-0.13887 0.32825-0.51762 0.49237-0.55549 0.23987-2.0452 0.23987-0.0884-0.59337-0.46712-1.4645l-0.94687 0.69437q-0.41662-0.71962-1.4771-1.7044l0.707-0.50499h-1.7549v-1.4771h4.8606v-0.44187h-4.0778v-4.242h2.5755v-0.37875h-3.1436v-1.4392h3.1436v-1.3382h1.7801v1.3382h1.0857q-0.65649-0.39137-0.78274-0.4545l0.79537-0.94686q0.93424 0.40399 1.6286 0.90899l-0.37874 0.49237h0.82061v1.4392h-3.1688v0.37875h2.7396v4.242h-1.2372v0.44187z" style="paint-order:markers stroke fill"/>
     <path d="m176.41 319.1h-2.6638q-0.0505 0.0379-0.39137 0.23987 1.1489 0.68175 1.6412 1.1362 0.87112-0.60599 1.414-1.3761zm-1.717-4.848h-2.7144q-0.0379 0.0253-0.31562 0.20199 1.0479 0.56812 1.515 0.9595 0.93424-0.58075 1.515-1.1615zm3.1057 3.2194 1.2625 0.63124q-0.56812 1.4266-1.5024 2.4871t-2.222 1.7549q-1.2877 0.68174-2.727 1.0984-1.4266 0.41663-3.232 0.6565-0.26512-0.97212-0.80799-1.7044 2.8658-0.26512 4.7217-1.0226-0.60599-0.51762-1.5781-1.1362-0.95949 0.42925-1.6791 0.69437-0.16413-0.32825-0.505-0.77012t-0.63125-0.68174q2.8659-0.83325 4.5828-2.323-2.1462 1.1362-5.1888 1.7422-0.32825-0.94687-0.85849-1.5907 2.2094-0.31562 4.04-1.0479-0.59337-0.47975-1.3887-0.909-0.99737 0.4545-1.3004 0.56812-0.18937-0.31562-0.56812-0.71962-0.36612-0.41662-0.68174-0.65649 3.1941-0.97212 4.7091-2.7775l2.0326 0.44187q-0.0884 0.101-0.27774 0.303-0.18938 0.202-0.202 0.21462h2.1715l0.29037-0.0757 1.2246 0.69437q-0.94687 1.7927-2.7017 3.0174l1.616 0.37875q-0.23988 0.29037-0.7575 0.808h1.8432z" style="paint-order:markers stroke fill"/>
     <path d="m180.84 323.42-0.93424-0.49238q0.61862-0.87111 0.70699-2.929l0.98475 0.17675q-0.0757 1.1489-0.22725 1.9442-0.1515 0.78274-0.53025 1.3004zm0.77012-3.1057 0.78275-0.0758q0.16412 1.2625 0.10099 2.3987l-0.80799 0.101q0.0757-1.0605-0.0757-2.424zm0.88374-0.0631 0.74487-0.12624q0.31563 1.0731 0.37875 2.0957l-0.79537 0.1515q-0.0252-0.8585-0.32825-2.121zm7.7643-6.2872h-1.9695v2.626h1.9695zm-8.0294 3.636v0.5555h0.58075v-0.5555zm0.58075-3.838h-0.58075v0.505h0.58075zm0 2.4492v-0.54288h-0.58075v0.54288zm9.153 2.0957h-1.7549q0.64387 3.1815 2.3482 4.2925-0.31562 0.26512-0.68174 0.71962-0.3535 0.45449-0.54287 0.80799-1.1489-0.83324-1.7927-2.2725-0.63124-1.4392-0.99737-3.5476h-0.26512q-0.12625 3.9895-1.3256 5.8327-0.22725-0.20199-0.66912-0.47974-0.42925-0.27775-0.7575-0.41662-0.0379 0.13887-0.1515 0.27774-0.29037 0.41663-0.80799 0.51763-0.404 0.0757-1.1489 0.0505-0.0505-0.79536-0.37874-1.4392 0.29037 0.0379 0.66912 0.0379 0.20199 0 0.34087-0.17675 0.12625-0.202 0.21462-0.89637l-0.39137 0.13888q-0.0884-0.66912-0.505-1.6665l0.69437-0.23987q0.17675 0.39137 0.303 0.73224 0.0252-0.64387 0.0505-0.98474h-3.737v-7.3351h5.05v1.5024h-1.4266v0.505h1.2372v1.4014h-1.2372v0.54288h1.2372v1.3887h-1.2372v0.5555h1.7044q-0.0126 0.41662-0.0252 0.606-0.12625 3.1688-0.36612 4.1788 0.59337-1.0731 0.77011-2.4745 0.18938-1.414 0.18938-3.1815v-5.0373h5.3908z" style="paint-order:markers stroke fill"/>
    </g>
   </g>
   <g fill="#fff" stroke-width=".99782">
    <g transform="translate(22.122 8.7514)" stroke="#07c" style="paint-order:markers stroke fill" aria-label="千代県庁口駅">
     <path d="m112.15 180.26v0.91331h-2.488v2.6958h-1.0141v-2.6958h-2.425v-0.91331h2.425v-1.1527q-0.81883 0.0945-1.8203 0.15747-0.0441-0.39682-0.25195-0.83143 2.7273-0.18896 4.2894-0.65507l0.71175 0.79364q-0.84403 0.23935-1.9148 0.39682v1.2912z" style="paint-order:markers stroke fill"/>
     <path d="m118.58 178.79-0.76214 0.4787q-0.20786-0.4535-0.79363-1.0897l0.71175-0.43461q0.60467 0.59208 0.84402 1.0456zm-4.4532-0.99519 0.90072 0.29604q-0.27715 0.64246-0.55429 1.1149v4.6547h-0.9763v-3.2312q-0.32123 0.37793-0.56058 0.59838-0.20156-0.51019-0.5165-0.9637 0.5039-0.44091 0.96371-1.1023 0.4598-0.66137 0.74324-1.3668zm4.5351 2.4628-1.8329 0.25825q0.25824 2.0975 0.87551 2.1982 0.063 6e-3 0.10708-0.0945 0.0441-0.10707 0.0756-0.32123t0.0504-0.56688q0.25194 0.27714 0.76214 0.54169-0.12597 0.91331-0.37792 1.2597-0.24565 0.34642-0.57318 0.32123-0.80624-0.0819-1.2408-0.87552-0.42831-0.79994-0.61097-2.3305l-1.1086 0.15747-0.13858-0.90702 1.1653-0.15746q-0.063-0.86292-0.0945-1.8896h0.95741q0.0126 1.0015 0.063 1.7573l1.7951-0.23935z" style="paint-order:markers stroke fill"/>
     <path d="m123.44 178.8v-0.21416h-1.877v0.21416zm0 0.80623v-0.22045h-1.877v0.22045zm0 0.79994v-0.22046h-1.877v0.22046zm0.91331-2.4439v3.0675h-3.6658v-3.0675zm-3.9619 4.2705 0.9826 0.37163q-0.32753 0.35902-0.74325 0.69285-0.41571 0.33383-0.81253 0.55429-0.32753-0.32753-0.76844-0.62987 0.37792-0.17636 0.75584-0.45351 0.38422-0.28344 0.58578-0.53539zm4.6358-0.13227h-2.4313v1.7699h-1.0015v-1.7699h-1.2408v0.10708h-0.94481v-3.8296h0.94481v2.9037h4.6736zm-2.2046 0.57318 0.81883-0.51019q1.0708 0.71805 1.4991 1.1086l-0.88182 0.57948q-0.40941-0.43461-1.4361-1.1779z" style="paint-order:markers stroke fill"/>
     <path d="m127.13 180.87v-0.88181h4.3272v0.88181h-1.5936v2.0093q0 0.37162-0.10078 0.56688-0.0945 0.19526-0.34643 0.29604-0.34643 0.14487-1.3794 0.14487-0.0819-0.485-0.32123-0.92591 0.37162 0.0189 1.0141 0.0189 0.17007 0 0.17007-0.13227v-1.9778zm2.0786-2.3935h2.3179v0.90071h-4.6673v0.69916q0 2.551-0.66137 3.7666-0.13857-0.12597-0.39681-0.29604-0.25825-0.16376-0.42202-0.22675 0.23305-0.42831 0.35903-1.0645 0.12597-0.64247 0.15117-1.1023 0.0252-0.45981 0.0252-1.0834v-1.5936h2.3116v-0.73065h0.98259z" style="paint-order:markers stroke fill"/>
     <path d="m133.34 182.29h3.2312v-2.9793h-3.2312zm-0.9826-3.9304h5.2468v5.4106h-1.033v-0.5102h-3.2312v0.5102h-0.9826z" style="paint-order:markers stroke fill"/>
     <path d="m138.74 183.53-0.4661-0.24565q0.30863-0.43461 0.35272-1.4613l0.4913 0.0882q-0.0378 0.57318-0.11338 0.97-0.0756 0.39052-0.26454 0.64877zm0.38422-1.5495 0.39052-0.0378q0.0819 0.62987 0.0504 1.1968l-0.40312 0.0504q0.0378-0.5291-0.0378-1.2094zm0.44091-0.0315 0.37162-0.063q0.15747 0.53539 0.18896 1.0456l-0.39681 0.0756q-0.0126-0.42831-0.16377-1.0582zm3.8737-3.1368h-0.9826v1.3101h0.9826zm-4.006 1.814v0.27715h0.28974v-0.27715zm0.28974-1.9148h-0.28974v0.25195h0.28974zm0 1.222v-0.27085h-0.28974v0.27085zm4.5666 1.0456h-0.87552q0.32123 1.5873 1.1716 2.1416-0.15746 0.13227-0.34013 0.35903-0.17636 0.22675-0.27084 0.40311-0.57318-0.41571-0.89442-1.1338-0.31493-0.71806-0.49759-1.7699h-0.13228q-0.063 1.9904-0.66136 2.91-0.11338-0.10078-0.33383-0.23935-0.21416-0.13857-0.37792-0.20786-0.0189 0.0693-0.0756 0.13857-0.14487 0.20786-0.40311 0.25825-0.20156 0.0378-0.57319 0.0252-0.0252-0.39682-0.18896-0.71806 0.14487 0.0189 0.33383 0.0189 0.10078 0 0.17007-0.0882 0.063-0.10078 0.10708-0.44721l-0.19526 0.0693q-0.0441-0.33383-0.25195-0.83143l0.34643-0.11968q0.0882 0.19526 0.15117 0.36533 0.0126-0.32124 0.0252-0.4913h-1.8644v-3.6596h2.5195v0.74955h-0.71176v0.25195h0.61728v0.69915h-0.61728v0.27085h0.61728v0.69285h-0.61728v0.27715h0.85033q-6e-3 0.20785-0.0126 0.30233-0.063 1.581-0.18266 2.0849 0.29604-0.53538 0.38422-1.2345 0.0945-0.70546 0.0945-1.5873v-2.5132h2.6896z" style="paint-order:markers stroke fill"/>
    </g>
    <g stroke="url(#linearGradient1058)" style="paint-order:markers stroke fill" aria-label="中洲川端駅">
     <path d="m37.081 281.91h1.2408v-1.2094h-1.2408zm-2.236 0h1.2408v-1.2094h-1.2408zm2.236-2.129h2.2297v3.3509h-0.9889v-0.30234h-1.2408v1.9715h-0.9952v-1.9715h-1.2408v0.33383h-0.93851v-3.3824h2.1794v-1.1086h0.9952z" style="paint-order:markers stroke fill"/>
     <path d="m41.843 279.33-0.57948 0.76215q-0.27714-0.23935-1.0708-0.68656l0.54799-0.68656q0.83143 0.40942 1.1023 0.61097zm-0.25825 1.6944-0.56688 0.75585q-0.25195-0.21416-1.0519-0.65507l0.52279-0.68655q0.80623 0.38422 1.096 0.58577zm-0.67396 3.7099-0.85032-0.4724q0.44091-0.93221 0.81253-2.0849l0.76214 0.4787q-0.33383 1.0897-0.72435 2.0786zm4.0816-5.8956h0.90072v5.9523h-0.90072v-2.6266l-0.28974 0.14487q-0.03149-0.15117-0.16377-0.52279v2.7966h-0.87552v-2.3872l-0.35273 0.14487q-0.04409-0.25194-0.11968-0.50389-0.08188 1.8833-0.74325 2.9604-0.14487-0.13857-0.39052-0.30234-0.23935-0.16377-0.41572-0.23935 0.63617-0.9889 0.68026-2.7714-0.14487 0.66136-0.35903 1.0141l-0.68656-0.37792q0.34643-0.56059 0.4787-1.5432l0.57318 0.17006v-1.9022h0.88182v2.003l0.30234-0.12597 0.15117 0.32123v-2.0597h0.87552v1.7132l0.23305-0.10708q0.12597 0.18897 0.22045 0.37793z" style="paint-order:markers stroke fill"/>
     <path d="m47.215 278.98h0.9637v2.2549q0 0.56058-0.03149 0.9826-0.02519 0.41571-0.11968 0.91961-0.08818 0.4976-0.29604 0.93221-0.20156 0.43461-0.51649 0.79363-0.13227-0.15747-0.38422-0.36532-0.24565-0.20786-0.43461-0.32124 0.34643-0.38422 0.53539-0.90701 0.18896-0.52909 0.23305-0.9763 0.05039-0.44721 0.05039-1.0645zm1.9337 0.28344h0.9574v4.8752h-0.9574zm1.8581-0.28974h0.9889v5.8011h-0.9889z" style="paint-order:markers stroke fill"/>
     <path d="m58.799 278.98v1.7258h-3.4769v-1.7258h0.85032v0.9259h0.40942v-1.2094h0.90071v1.2094h0.42201v-0.9259zm-3.754 0.87551v0.83143h-2.066v-0.83143h0.64247v-1.0834h0.83143v1.0834zm-1.1401 2.7903-0.72435 0.13857q0.0189-0.78104-0.16377-1.8329l0.68026-0.13227q0.19526 0.91331 0.20786 1.8266zm0.75584 0.21416 0.4661-0.0945 0.09448 0.82513q-0.44091 0.11968-1.266 0.32754-0.82513 0.20785-0.92591 0.23305l-0.20156-0.91961q0.4913-0.0819 1.3857-0.27714l-0.27084-0.063q0.22046-0.9826 0.28344-2.1101l0.85662 0.17007q-0.21416 1.1464-0.42201 1.9085zm3.4013 1.1338v-1.1023h-0.20786v1.1779h0.14487q0.06299 0 0.06299-0.0756zm0.91961-2.2108h-1.4802l-0.15117 0.33383h1.5432v1.8896q0 0.51649-0.23935 0.66136-0.20786 0.13228-0.69916 0.13228-0.0189-0.19526-0.10078-0.45351v0.37792h-0.69286v-1.8329h-0.21416v1.8329h-0.69286v-1.8329h-0.20156v1.8833h-0.83143v-2.658h1.1653q0.04409-0.20156 0.06929-0.33383h-1.3353v-0.81883h3.8611z" style="paint-order:markers stroke fill"/>
     <path d="m59.706 284.46-0.4661-0.24565q0.30864-0.43461 0.35273-1.4613l0.4913 0.0882q-0.03779 0.57318-0.11338 0.97-0.07558 0.39052-0.26454 0.64877zm0.38422-1.5495 0.39052-0.0378q0.08188 0.62987 0.05039 1.1968l-0.40312 0.0504q0.03779-0.52909-0.03779-1.2094zm0.44091-0.0315 0.37162-0.063q0.15747 0.53539 0.18896 1.0456l-0.39682 0.0756q-0.0126-0.42831-0.16377-1.0582zm3.8737-3.1368h-0.9826v1.3101h0.9826zm-4.006 1.814v0.27714h0.28974v-0.27714zm0.28974-1.9148h-0.28974v0.25195h0.28974zm0 1.222v-0.27085h-0.28974v0.27085zm4.5666 1.0456h-0.87552q0.32123 1.5873 1.1716 2.1416-0.15747 0.13227-0.34013 0.35903-0.17636 0.22675-0.27084 0.40311-0.57318-0.41571-0.89442-1.1338-0.31494-0.71805-0.4976-1.7699h-0.13227q-0.06299 1.9904-0.66136 2.91-0.11338-0.10078-0.33383-0.23935-0.21416-0.13857-0.37792-0.20786-0.0189 0.0693-0.07559 0.13858-0.14487 0.20785-0.40312 0.25824-0.20156 0.0378-0.57318 0.0252-0.02519-0.39682-0.18896-0.71805 0.14487 0.0189 0.33383 0.0189 0.10078 0 0.17006-0.0882 0.06299-0.10078 0.10708-0.44721l-0.19526 0.0693q-0.04409-0.33383-0.25195-0.83143l0.34643-0.11968q0.08818 0.19526 0.15117 0.36533 0.0126-0.32123 0.02519-0.4913h-1.8644v-3.6596h2.5195v0.74955h-0.71175v0.25195h0.61727v0.69915h-0.61727v0.27085h0.61727v0.69286h-0.61727v0.27714h0.85032q-0.0063 0.20786-0.0126 0.30234-0.06299 1.581-0.18266 2.0849 0.29604-0.53539 0.38422-1.2346 0.09448-0.70545 0.09448-1.5873v-2.5132h2.6895z" style="paint-order:markers stroke fill"/>
    </g>
    <g stroke="#07c" style="paint-order:markers stroke fill" aria-label="呉服町駅">
     <path d="m54.415 236.6v-0.51019h-1.4424v0.51019zm0.93851-1.2975v2.0912h-3.2627v-2.0912zm0.78734 4.5099h-1.9904q1.1968 0.40942 2.0408 0.81883l-0.9448 0.61728q-0.82513-0.485-1.8266-0.83773l0.69916-0.59838h-1.8833l0.74325 0.57948q-0.91961 0.5039-2.0849 0.85663-0.28974-0.35903-0.69286-0.69286 1.033-0.27085 1.8644-0.74325h-1.8203v-0.86922h3.9808v-0.40312h-2.5069v0.18267h-0.9511v-2.9352h0.9511v1.9148h3.458v1.2408h0.9637z" style="paint-order:markers stroke fill"/>
     <path d="m57.772 238.25h0.43461v-0.60467h-0.42831v0.063q0 0.34642-0.0063 0.54168zm0.43461-2.0408h-0.42831v0.57318h0.42831zm0.86292-0.86923v4.9256q0 0.32123-0.06299 0.51019-0.05669 0.18896-0.22045 0.30234-0.15747 0.10708-0.36532 0.13857-0.20156 0.0315-0.56688 0.0315-0.03779-0.47241-0.24565-0.90072 0.10078 6e-3 0.4976 6e-3 0.10078 0 0.10078-0.10708v-1.1149h-0.4787q-0.10078 1.3479-0.44721 2.129-0.11968-0.10078-0.35903-0.23305-0.23305-0.13227-0.39682-0.18896 0.41571-0.9448 0.41571-3.1304v-2.3683zm1.1275 3.2123v1.9652q0.37162-0.23306 0.66136-0.57319-0.38422-0.59207-0.66136-1.392zm1.4235-0.0882h-0.66136q0.15117 0.40312 0.37792 0.74955 0.18896-0.39052 0.28344-0.74955zm0.45981-0.86922 0.55428 0.17006q-0.18896 1.2786-0.70545 2.1605 0.39682 0.37792 0.88812 0.60467-0.14487 0.12598-0.31494 0.33384-0.17006 0.21415-0.26455 0.38422-0.4787-0.26455-0.83143-0.61728-0.32123 0.34643-0.77474 0.62357-0.16377-0.29603-0.43461-0.58577v0.57948h-0.88182v-5.9082h3.1116v1.2534q0 0.30863-0.08188 0.4787-0.08188 0.17006-0.30234 0.25195-0.28974 0.11337-1.1716 0.11337-0.05039-0.33383-0.27084-0.78104 0.19526 0.0126 0.4661 0.0189 0.27714 0 0.32753-6e-3 0.13857 0 0.13857-0.0945v-0.36532h-1.3353v1.4109h1.7384z" style="paint-order:markers stroke fill"/>
     <path d="m64.335 236.21h-0.28974v1.0834h0.28974zm1.033 1.0834v-1.0834h-0.31494v1.0834zm-0.31494 1.9463h0.31494v-1.1464h-0.31494zm-1.0078-1.1464v1.1464h0.28974v-1.1464zm2.129-2.7022v4.661h-2.129v0.485h-0.77474v-5.146zm2.9856 0.40942v0.91331h-0.76214v3.4958q0 0.35903-0.09448 0.56058-0.08818 0.20156-0.30864 0.31494-0.20786 0.10708-0.4913 0.13227-0.28344 0.0315-0.79994 0.0315-0.06299-0.45981-0.30864-0.93221 0.23305 0.0189 0.86922 0.0189 0.16377 0 0.16377-0.14487v-3.4769h-1.1149v-0.91331z" style="paint-order:markers stroke fill"/>
     <path d="m69.846 240.91-0.4661-0.24565q0.30864-0.43461 0.35273-1.4613l0.4913 0.0882q-0.03779 0.57318-0.11338 0.97-0.07559 0.39052-0.26455 0.64877zm0.38422-1.5495 0.39052-0.0378q0.08188 0.62987 0.05039 1.1968l-0.40312 0.0504q0.03779-0.52909-0.03779-1.2094zm0.44091-0.0315 0.37162-0.063q0.15747 0.53538 0.18896 1.0456l-0.39682 0.0756q-0.0126-0.42831-0.16377-1.0582zm3.8737-3.1368h-0.9826v1.3101h0.9826zm-4.006 1.814v0.27715h0.28974v-0.27715zm0.28974-1.9148h-0.28974v0.25195h0.28974zm0 1.222v-0.27085h-0.28974v0.27085zm4.5666 1.0456h-0.87552q0.32123 1.5873 1.1716 2.1416-0.15747 0.13227-0.34013 0.35903-0.17636 0.22675-0.27084 0.40311-0.57318-0.41571-0.89442-1.1338-0.31494-0.71805-0.4976-1.7699h-0.13227q-0.06299 1.9904-0.66136 2.91-0.11338-0.10078-0.33383-0.23935-0.21416-0.13857-0.37792-0.20786-0.0189 0.0693-0.07558 0.13858-0.14487 0.20785-0.40312 0.25824-0.20156 0.0378-0.57318 0.0252-0.02519-0.39682-0.18896-0.71805 0.14487 0.0189 0.33383 0.0189 0.10078 0 0.17006-0.0882 0.06299-0.10078 0.10708-0.44721l-0.19526 0.0693q-0.04409-0.33383-0.25195-0.83143l0.34643-0.11968q0.08818 0.19526 0.15117 0.36533 0.0126-0.32124 0.0252-0.4913h-1.8644v-3.6596h2.5195v0.74955h-0.71175v0.25195h0.61727v0.69915h-0.61727v0.27085h0.61727v0.69285h-0.61727v0.27715h0.85032q-0.0063 0.20785-0.0126 0.30234-0.06299 1.581-0.18266 2.0849 0.29604-0.53539 0.38422-1.2346 0.09448-0.70545 0.09448-1.5873v-2.5132h2.6895z" style="paint-order:markers stroke fill"/>
    </g>
    <g stroke="#e51" style="paint-order:markers stroke fill" aria-label="祇園駅">
     <path d="m131.43 273.25v0.81254h-2.2738v-0.81254zm-2.3368 3.1116v-0.76214h0.62987v0.77474q0 1.3794-0.32754 2.0975-0.22675-0.25195-0.54169-0.41572 0.23936-0.59207 0.23936-1.6944zm2.4124-1.0141h-0.81253v3.6344h-0.81254v-3.6344h-0.87552v-0.81883h2.5006zm-0.0189 0.23935v2.236h-0.62357v-2.236zm1.1023-0.37792h0.62987q-0.0189-0.51019-0.0189-1.0771-0.0567 0.0126-0.27714 0.063-0.21416 0.0504-0.33384 0.0693zm2.3494 0.84403h-0.83143q0.0756 1.7573 0.28344 1.7762 0.0882 0 0.11968-0.76844 0.0945 0.12597 0.30863 0.28344 0.21416 0.15117 0.35273 0.22046-0.11337 0.79363-0.34013 1.1023-0.22045 0.30863-0.4724 0.30863-0.51649-6e-3 -0.76844-0.73065-0.25195-0.73064-0.33383-2.1919h-0.66767v1.7825l0.73695-0.15117 0.0882 0.80623q-0.39052 0.10078-1.1212 0.27085-0.72436 0.17006-0.82513 0.19526l-0.22676-0.87552q0.0756-0.0126 0.23305-0.0378 0.15747-0.0252 0.23935-0.0378v-4.6295l0.55429 0.15117q1.2094-0.27715 1.877-0.61728l0.76215 0.68656q-0.4787 0.19526-0.82513 0.29604-0.0126 0.69286 0 1.3164h0.85662z" style="paint-order:markers stroke fill"/>
     <path d="m138.82 274.67v0.16377h1.329v0.50389h-3.4895v-0.50389h1.3164v-0.16377h-1.0456v-0.485h1.0456v-0.21415h0.84403v0.21415h1.1086v0.485zm0.27714 1.4739v-0.22046h-1.3794v0.22046zm-0.18266 0.44091-0.0378 0.0315q0.13857 0.11338 0.25824 0.19526 0.22676-0.16377 0.30234-0.22675zm-2.4124 1.3542h3.8107v-4.0186h-3.8107v3.2375q0.79993-0.23305 1.3479-0.57318h-0.89442v-1.1086h2.9604v1.0204l0.33383 0.22045q-0.28344 0.21416-0.57318 0.37162 0.40312 0.15117 0.61727 0.19526-0.28344 0.25195-0.4724 0.57948-0.57948-0.17636-1.096-0.57948v0.54169h-0.81883v-0.50389q-0.47241 0.26454-0.91331 0.42201-0.20786-0.31494-0.4913-0.57318zm-0.87552-4.8563h5.5995v5.9082h-0.91331v-0.20786h-3.8107v0.20786h-0.87552z" style="paint-order:markers stroke fill"/>
     <path d="m142.19 278.64-0.4661-0.24565q0.30864-0.43461 0.35273-1.4613l0.4913 0.0882q-0.0378 0.57318-0.11338 0.97-0.0756 0.39052-0.26455 0.64876zm0.38422-1.5495 0.39052-0.0378q0.0819 0.62987 0.0504 1.1968l-0.40311 0.0504q0.0378-0.52909-0.0378-1.2094zm0.44091-0.0315 0.37163-0.063q0.15746 0.53539 0.18896 1.0456l-0.39682 0.0756q-0.0126-0.42831-0.16377-1.0582zm3.8737-3.1368h-0.9826v1.3101h0.9826zm-4.006 1.814v0.27714h0.28974v-0.27714zm0.28974-1.9148h-0.28974v0.25194h0.28974zm0 1.2219v-0.27084h-0.28974v0.27084zm4.5666 1.0456h-0.87552q0.32123 1.5873 1.1716 2.1416-0.15747 0.13227-0.34013 0.35902-0.17636 0.22676-0.27085 0.40312-0.57318-0.41571-0.89441-1.1338-0.31494-0.71805-0.4976-1.7699h-0.13227q-0.063 1.9904-0.66136 2.91-0.11338-0.10078-0.33384-0.23935-0.21415-0.13857-0.37792-0.20786-0.0189 0.0693-0.0756 0.13857-0.14487 0.20786-0.40312 0.25825-0.20156 0.0378-0.57318 0.0252-0.0252-0.39681-0.18896-0.71805 0.14487 0.0189 0.33383 0.0189 0.10078 0 0.17006-0.0882 0.063-0.10078 0.10708-0.44721l-0.19526 0.0693q-0.0441-0.33383-0.25195-0.83142l0.34643-0.11968q0.0882 0.19526 0.15117 0.36533 0.0126-0.32124 0.0252-0.4913h-1.8644v-3.6596h2.5195v0.74955h-0.71175v0.25194h0.61727v0.69916h-0.61727v0.27084h0.61727v0.69286h-0.61727v0.27714h0.85032q-6e-3 0.20786-0.0126 0.30234-0.063 1.581-0.18267 2.0849 0.29604-0.53539 0.38422-1.2345 0.0945-0.70546 0.0945-1.5873v-2.5132h2.6896z" style="paint-order:markers stroke fill"/>
    </g>
   </g>
   <g fill="#fff" stroke-linecap="round" stroke-width="1.2915">
    <path d="m123.27 276.3a1.9977 1.9977 0 0 1-2.124 1.8628 1.9977 1.9977 0 0 1-1.8629-2.1239 1.9977 1.9977 0 0 1 2.1239-1.8629 1.9977 1.9977 0 0 1 1.863 2.1238" stroke="#e51" style="paint-order:markers stroke fill"/>
    <path d="m54.294 272.72a1.9977 1.9977 0 0 1-2.1239 1.8628 1.9977 1.9977 0 0 1-1.8629-2.1239 1.9977 1.9977 0 0 1 2.1239-1.8629 1.9977 1.9977 0 0 1 1.863 2.1238" stroke="url(#linearGradient1107)" style="paint-order:markers stroke fill"/>
    <g stroke="#07c">
     <path d="m83.28 238.69a1.9977 1.9977 0 0 1-2.1239 1.8628 1.9977 1.9977 0 0 1-1.8629-2.1239 1.9977 1.9977 0 0 1 2.1239-1.8629 1.9977 1.9977 0 0 1 1.863 2.1238" style="paint-order:markers stroke fill"/>
     <path d="m125.56 189a1.9977 1.9977 0 0 1-2.124 1.8628 1.9977 1.9977 0 0 1-1.8629-2.1239 1.9977 1.9977 0 0 1 2.1239-1.8629 1.9977 1.9977 0 0 1 1.863 2.1238" style="paint-order:markers stroke fill"/>
     <path d="m166.74 122.1a1.9977 1.9977 0 0 1-2.124 1.8628 1.9977 1.9977 0 0 1-1.8629-2.1239 1.9977 1.9977 0 0 1 2.1239-1.8629 1.9977 1.9977 0 0 1 1.863 2.1238" style="paint-order:markers stroke fill"/>
    </g>
   </g>
  </g>
  <g fill="#ffff2e" stroke="#f00" stroke-linejoin="round" stroke-width="2" style="paint-order:markers stroke fill" aria-label="吉塚市場">
   <path d="m213.7 196.57h-5.1762v1.515h5.1762zm-7.1204 3.6234v-5.3025h9.1909v5.3025h-2.0705v-0.37875h-5.1762v0.37875zm10.302-9.0521h-4.7848v1.1489h3.9516v1.7801h-9.8348v-1.7801h3.8885v-1.1489h-4.7596v-1.7549h4.7596v-1.4645h1.9947v1.4645h4.7848z" style="paint-order:markers stroke fill"/>
   <path d="m221.51 194.96 0.1515 0.58075q1.414-0.49237 2.4618-1.2625l-0.21462-0.21463q-0.77012 0.42925-1.5907 0.7575-0.54287-0.7575-1.0731-1.2246 1.4645-0.45449 2.7522-1.1867h-1.4014v-1.4771h-0.79537v1.616h-0.95949v2.6891zm3.6107 3.2698q0.303-0.303 0.303-1.0479-0.75749 0.60599-1.8937 1.313 0.53025 0.0379 0.93425 0.0379 0.44187 0 0.65649-0.303zm2.828-8.2314h-4.4945v0.85849h4.4945zm1.0984 2.5502 1.111 1.414q-0.23988 0.17674-0.74487 0.54287-0.49237 0.36612-0.71962 0.53024 0.70699 1.5781 1.6286 2.4619-0.80799 0.63124-1.3887 1.5276-1.7422-1.9569-2.6765-6.5018-0.58074 0.45449-0.98474 0.71962 0.83324 0.73224 1.3256 1.7044 0.50499 0.97212 0.59337 1.8432 0.0884 0.87112-0.101 1.616-0.17675 0.74487-0.606 1.1236-0.61862 0.64387-1.6412 0.66912-0.30299 0.0126-1.01-0.0126-0.0505-0.97212-0.41662-1.6286-0.93424 0.56812-1.8054 0.95949-0.41662-0.79537-1.0352-1.3887 1.1741-0.39137 2.4366-1.111 1.2751-0.71962 2.02-1.4392-0.0757-0.17675-0.11363-0.2525-1.1489 0.83325-2.4114 1.4519-0.31563-0.4545-0.7575-0.92162l0.17675 0.71962q-1.8054 0.89637-3.6738 1.7422l-0.51762-1.8559q0.4545-0.1515 1.3509-0.505v-3.4087h-1.0731v-1.7296h1.0731v-2.6891h1.7549v2.6891h0.84587v-2.4492h8.1304v2.5629h-0.98475v1.4771h-1.0226q0.0757 0.31562 0.31562 1.1236 0.60599-0.5555 0.92162-0.98474z" style="paint-order:markers stroke fill"/>
   <path d="m242.97 191.32h-5.0752v1.1236h4.0526v4.2925q0 0.68175-0.17675 1.0731-0.16413 0.37875-0.59337 0.59337-0.63125 0.303-2.3104 0.303-0.11362-0.808-0.63124-1.8432 0.51762 0.0379 1.4645 0.0379 0.29038 0 0.29038-0.202v-2.424h-2.0957v5.9463h-1.9695v-5.9463h-1.8685v4.4061h-1.9064v-6.2367h3.7748v-1.1236h-4.949v-1.8432h4.9237v-1.6034h2.0326v1.6034h5.0373z" style="paint-order:markers stroke fill"/>
   <path d="m253.43 189.88v-0.39137h-2.8911v0.39137zm0 1.5781v-0.39137h-2.8911v0.39137zm1.7296-3.232v4.4945h-6.2746v-4.4945zm-1.1741 8.3451h-0.21463q-0.47974 1.1741-1.1741 2.1715 0.2525 0.0126 0.59337 0.0126 0.2525 0 0.37875-0.16413 0.26512-0.29037 0.41662-2.02zm2.0452-1.919h-5.0878q-0.0884 0.17675-0.26513 0.4545h5.1257q-0.0126 0.41662-0.0379 0.61862-0.12625 1.818-0.29037 2.7144-0.16413 0.88374-0.42925 1.1867-0.34087 0.40399-0.93424 0.49237-0.44188 0.0757-1.3382 0.0505-0.0505-0.707-0.303-1.2499-0.61862 0.84587-1.2625 1.3382-0.59337-0.64387-1.3256-1.0352 1.3635-0.83324 2.3104-2.6512h-0.4545q-0.51762 0.88374-1.3382 1.7422-0.82061 0.85849-1.6286 1.3635-0.53024-0.6565-1.2246-1.0984 1.3382-0.6565 2.4492-2.0074h-0.4545q-0.64387 0.66912-1.3635 1.1362-0.34087-0.37875-0.95949-0.90899-1.5529 0.79537-2.9037 1.4519l-0.69437-1.9064q0.27775-0.0884 1.5024-0.55549v-3.4087h-1.1868v-1.7801h1.1868v-2.4745h1.7422v2.4745h1.0857v1.7801h-1.0857v2.7017l0.87112-0.36612 0.29037 1.1236q0.64387-0.56812 1.0731-1.1868h-1.2751v-1.5655h8.2062z" style="paint-order:markers stroke fill"/>
  </g>
  <g fill="#ffff2e" stroke="#f00" stroke-linejoin="round" stroke-width="1.1337" style="paint-order:markers stroke fill" aria-label="旧 吉塚商店街">
   <path d="m207.94 212.7v-6.7273h1.1308v6.7273zm2.9629-1.5387h2.0754v-1.5602h-2.0754zm2.0754-4.0006h-2.0754v1.4671h2.0754zm-3.1704-0.98762h4.3155v6.4625h-1.1451v-0.4795h-2.0754v0.53675h-1.095z" style="paint-order:markers stroke fill"/>
   <path d="m221.97 210.62h-2.9342v0.8588h2.9342zm-4.0364 2.054v-3.0058h5.21v3.0058h-1.1737v-0.2147h-2.9342v0.2147zm5.8398-5.1313h-2.7124v0.65125h2.24v1.0091h-5.575v-1.0091h2.2043v-0.65125h-2.6981v-0.99478h2.6981v-0.83017h1.1308v0.83017h2.7124z" style="paint-order:markers stroke fill"/>
   <path d="m226.4 209.71 0.0859 0.32921q0.80154-0.27911 1.3956-0.71567l-0.12167-0.12166q-0.43655 0.24333-0.90174 0.4294-0.30773-0.4294-0.60831-0.6942 0.83017-0.25764 1.5602-0.67273h-0.79439v-0.83733h-0.45087v0.91606h-0.54391v1.5244zm2.0468 1.8536q0.17176-0.17176 0.17176-0.594-0.4294 0.34352-1.0735 0.74429 0.30058 0.0215 0.5296 0.0215 0.25048 0 0.37214-0.17176zm1.6031-4.6662h-2.5478v0.48665h2.5478zm0.62263 1.4456 0.62979 0.80154q-0.13598 0.1002-0.42225 0.30774-0.27911 0.20755-0.40793 0.30058 0.40078 0.89459 0.92321 1.3956-0.45802 0.35784-0.78723 0.86596-0.98762-1.1093-1.5172-3.6857-0.3292 0.25764-0.55822 0.40793 0.47234 0.41509 0.75145 0.96616 0.28627 0.55106 0.33637 1.0449t-0.0572 0.91605q-0.1002 0.42225-0.34353 0.63695-0.35067 0.36499-0.93036 0.3793-0.17176 7e-3 -0.57254-7e-3 -0.0286-0.55106-0.23617-0.92321-0.52959 0.32205-1.0234 0.54391-0.23617-0.45087-0.58685-0.78723 0.66557-0.22186 1.3812-0.62979 0.72282-0.40793 1.1451-0.81586-0.0429-0.10019-0.0644-0.14313-0.65126 0.47234-1.3669 0.82301-0.17891-0.25764-0.4294-0.52243l0.1002 0.40793q-1.0234 0.50812-2.0826 0.98762l-0.29343-1.052q0.25764-0.0859 0.76577-0.28627v-1.9323h-0.60832v-0.98047h0.60832v-1.5244h0.99477v1.5244h0.4795v-1.3884h4.6089v1.4528h-0.55822v0.83733h-0.57975q0.0429 0.17892 0.17891 0.63695 0.34352-0.3149 0.52244-0.55822z" style="paint-order:markers stroke fill"/>
   <path d="m234.51 207.62h1.188q0.12166-0.23617 0.20754-0.46518h-1.5816q0.12882 0.27911 0.18607 0.46518zm2.7553 1.2739v-0.36499h-1.0377v0.31489q0 0.12882 0.0143 0.15745 0.0215 0.0215 0.10019 0.0215h0.22902q0.0787 0 0.10735-0.0644 0.0286-0.0716 0.0429-0.30058 0.17891 0.13597 0.5439 0.23617zm-4.1437-0.36499v0.75145q0.47234-0.0859 0.63694-0.25049 0.17176-0.17176 0.19323-0.50096zm2.5836 2.6694v-0.43656h-1.0664v0.43656zm2.7052-4.0435h-1.2524q-0.0573 0.10019-0.27911 0.46518h1.4099v3.9576q0 0.3793-0.093 0.594-0.0859 0.2147-0.31489 0.33637-0.35068 0.17891-1.2954 0.17891-0.0358-0.24332-0.2147-0.71566h-1.7319v0.36499h-0.93752v-2.3474h2.9557v1.7033q0.20038 7e-3 0.44371 7e-3 0.1646 0 0.1646-0.13597v-1.9896q-0.17891 0.20039-0.57969 0.20039h-0.50097q-0.52959 0-0.70135-0.19323-0.1646-0.19323-0.1646-0.72283v-0.3292h-0.43656q-0.0215 0.32205-0.093 0.5439-0.0644 0.2147-0.22185 0.41509-0.15029 0.19323-0.4294 0.32921t-0.70136 0.22901q-0.0716-0.22901-0.31489-0.55106v3.1704h-1.0091v-5.0454h1.2381q-0.0716-0.23617-0.17176-0.46518h-1.2739v-0.959h2.6623v-0.47949h1.1021v0.47949h2.741z" style="paint-order:markers stroke fill"/>
   <path d="m244.3 211.49v-0.76576h-2.2973v0.76576zm-0.71567-3.8718v0.58685h2.1971v0.93036h-2.1971v0.65842h1.8106v2.877h-1.095v-0.25048h-2.2973v0.25048h-1.0377v-2.877h1.5315v-2.1756zm-0.30058-1.095h2.5979v1.0091h-5.2244v0.81586q0 2.9128-0.8087 4.3083-0.15745-0.13598-0.45087-0.32921-0.28627-0.19323-0.47234-0.27195 0.66557-1.1379 0.66557-3.7072v-1.825h2.5764v-0.8087h1.1164z" style="paint-order:markers stroke fill"/>
   <path d="m253.15 206.1v0.93037h-1.8536v-0.93037zm-5.6752-0.3793 0.95184 0.35783q-0.30774 0.50097-0.7443 0.99478-0.43655 0.49381-0.86595 0.82301-0.25049-0.45802-0.54391-0.80154 0.34352-0.25049 0.67988-0.63695 0.33637-0.39361 0.52244-0.73713zm0.92321 3.0988v-0.83733q-0.10019 0.20755-0.32921 0.60832v4.0936h-0.9733v-2.7553q-0.14314 0.1646-0.32921 0.33636-0.0716-0.18607-0.25048-0.50096-0.17892-0.32205-0.30774-0.49382 0.41509-0.35783 0.79439-0.88027 0.3793-0.52243 0.61547-1.0735l0.94468 0.32205q-0.0143 0.0429-0.0572 0.13598-0.0429 0.0859-0.0573 0.12882h0.83017v-0.55822h-0.74429v-0.88027h0.74429v-0.74429h1.0091v0.74429h0.75861v0.88027h-0.75861v0.55822h0.85165v0.91605zm4.8737-0.7586v0.94468h-0.47234v2.5406q0 0.39361-0.0787 0.60831-0.0716 0.2147-0.28627 0.33637-0.30773 0.18607-1.1451 0.18607-0.0286-0.2648-0.17176-0.73714-0.77292 0.0859-2.7768 0.28627l-0.1002-0.96615q0.16461-0.0143 0.51528-0.0358 0.35784-0.0286 0.50813-0.0429v-0.71567h-0.81586v-0.90174h0.81586v-0.63695h1.0091v0.63695h0.81586v0.90174h-0.81586v0.62979l0.90174-0.0787 0.0215 0.60832h0.43656q0.1145 0 0.1145-0.10735v-2.512h-0.48665v-0.94468z" style="paint-order:markers stroke fill"/>
  </g>
  <path d="m6.1857 103.04 24.895 15.766-2.0624 2.0624 21.139 15.983 19.592-27.842-28.873-25.006z" fill="#00f"/>
  <path d="m161.33 127.42s11.351 5.5203 13.128 11.264c1.7768 5.7441 11.933 10.239 11.933 10.239l4.8804 1.4401" fill="none" stroke="#000"/>
  <g fill="#fff" stroke="#07c" stroke-linejoin="round" stroke-width=".99782" style="paint-order:markers stroke fill" aria-label="馬出九大病院前駅">
   <path d="m133.36 133.52-0.76214-0.4787q0.52279-0.4976 0.66766-1.4361l0.82513 0.22676q-0.20786 1.1968-0.73065 1.688zm0.82513-1.581 0.78734-0.12598q0.23305 0.69286 0.26454 1.3605l-0.83143 0.13857q0-0.57318-0.22045-1.3731zm1.1086-0.0126 0.72435-0.17007q0.30864 0.65507 0.39052 1.2031l-0.77474 0.20155q-0.0567-0.55428-0.34013-1.2345zm-0.91331-1.4991v0.27714h0.9826v-0.27714zm0.9826-1.9841h-0.9826v0.27084h0.9826zm0 1.2597v-0.26455h-0.9826v0.26455zm0.92591 1.0015h2.3872q-6e-3 0.23305-0.0189 0.34643-0.0504 1.0393-0.12598 1.5306-0.0756 0.485-0.21415 0.64877-0.19526 0.23935-0.52909 0.28974-0.24565 0.0441-0.77474 0.0315-0.0189-0.40311-0.22676-0.81253l-0.0693 0.0252q-0.0882-0.40312-0.39052-0.94481l0.68026-0.22045q0.31493 0.51019 0.42831 0.91331l-0.54169 0.18896q0.28344 0.0189 0.40312 0.0126 0.13857 0 0.20786-0.0756 0.11967-0.13857 0.18896-1.1338h-4.2327v-3.8611h4.7051v0.79994h-1.877v0.27084h1.644v0.72435h-1.644v0.26455h1.644v0.72435h-1.644z" style="paint-order:markers stroke fill"/>
   <path d="m143.84 130.76h0.9826v2.784h-0.9826v-0.35902h-3.332v0.35902h-0.95741v-2.784h0.95741v1.5117h1.1338v-1.8203h-1.8329v-2.425h0.9448v1.5117h0.88812v-2.0345h0.9763v2.0345h0.9511v-1.518h0.9952v2.4313h-1.9463v1.8203h1.222z" style="paint-order:markers stroke fill"/>
   <path d="m150.43 132.55h0.30234q0.11337 0 0.14487-0.18896 0.0378-0.18896 0.0567-0.82513 0.34642 0.27084 0.87552 0.40311-0.063 0.85033-0.27715 1.1842t-0.69915 0.33383h-0.59208q-0.54169 0-0.74955-0.26454-0.20156-0.26455-0.20156-0.9889v-2.2927h-0.98889q-0.063 0.61728-0.19526 1.1149-0.13227 0.4976-0.37162 0.97-0.23936 0.47241-0.62987 0.86292-0.39052 0.39052-0.93221 0.69286-0.10708-0.18896-0.30234-0.41571-0.19526-0.22046-0.37162-0.35273 0.4598-0.23935 0.78733-0.54799 0.33384-0.30863 0.53539-0.67396 0.20786-0.37162 0.31494-0.76214 0.10708-0.39682 0.15747-0.88812h-1.4487v-0.9511h1.5054q6e-3 -0.45351 6e-3 -1.4424h1.033q-0.0126 1.1968-0.0252 1.4424h1.9085v3.2438q0 0.23305 0.0252 0.28974 0.0252 0.0567 0.13227 0.0567z" style="paint-order:markers stroke fill"/>
   <path d="m157.97 130.07h-2.1919q0.69915 1.9274 2.3494 2.5699-0.39052 0.35273-0.69286 0.88812-0.82513-0.37792-1.392-1.0015-0.56058-0.62988-0.9511-1.518-0.61098 1.6754-2.3242 2.5195-0.28344-0.485-0.70546-0.79994 0.9889-0.4472 1.518-1.1149 0.52909-0.67396 0.74325-1.5432h-2.1353v-0.97h2.2927q0.0315-0.37162 0.0441-1.6754h1.033q-0.0126 1.1149-0.063 1.6754h2.4754z" style="paint-order:markers stroke fill"/>
   <path d="m163.45 131.96v-0.79364h-0.66767q-6e-3 0.0315-0.0189 0.10078-0.0126 0.0693-0.0189 0.10078 0.4787 0.38422 0.70546 0.59208zm-2.0093-0.79364v0.81884q0.42201-0.28974 0.52279-0.81884zm-0.94481-1.1338v-0.78104h4.0123v0.78104h-1.6944v0.34643h1.5243v2.2927q0 0.28974-0.0693 0.45981-0.0693 0.17006-0.25195 0.27084-0.28974 0.15117-0.93221 0.13857-0.0567-0.37162-0.28974-0.80623 0.14487 6e-3 0.32123 0.0126 0.18267 0 0.22676-6e-3 0.10708 0 0.10708-0.0882v-0.34013l-0.38423 0.35902q-0.13857-0.17006-0.62357-0.61727-0.28974 0.41572-0.73065 0.66136-0.0882-0.14487-0.27084-0.34013v1.1716h-0.83143v-3.1682h1.392v-0.34643zm1.8266-1.94h2.2234v0.83143h-4.2264v1.1023q0 2.4502-1.0582 3.4832-0.0945-0.13227-0.31494-0.34013-0.22045-0.20156-0.35902-0.28344 0.4976-0.5039 0.68656-1.2849-0.0693 0.0378-0.28974 0.17007-0.21416 0.13227-0.33384 0.19526l-0.25824-0.88812q0.29604-0.11337 1.0204-0.4661 0.0126-0.20786 0.0126-0.59208v-0.13857l-0.59208 0.32123q-0.0819-0.53539-0.40942-1.2471l0.67396-0.33383q0.22676 0.4598 0.32754 0.75584v-1.2849h1.9022v-0.67396h0.9952z" style="paint-order:markers stroke fill"/>
   <path d="m165.99 128.54v2.7903h0.13228q0.11337 0 0.17006-0.0504 0.0882-0.0693 0.0882-0.32753 0-0.57318-0.37162-1.0456 0.16377-0.65507 0.29604-1.3668zm4.1256 0.36532h-2.0723v0.41572h2.0723zm-2.8974 0.54169v-1.1212q-0.38422 1.329-0.43461 1.4802 0.41571 0.56688 0.41571 1.266 0 0.65506-0.30863 0.87551-0.16377 0.11338-0.38422 0.15117-0.15747 0.0189-0.41572 0.0189-0.0126-0.30234-0.10078-0.57948v2.0219h-0.81253v-5.8515h1.3857l0.12598-0.0378 0.61727 0.34642-0.0315 0.10078h1.3164v-0.64876h0.91331v0.64876h1.4739v1.329h-0.485v0.66766h-2.8155v-0.66766zm2.8848 3.2501h0.0945q0.0315 0 0.0441-0.0252 0.0189-0.0252 0.0315-0.10078 0.0189-0.0819 0.0252-0.22676 6e-3 -0.14487 0.0126-0.38422 0.25825 0.22046 0.77474 0.34643-0.0567 0.69916-0.23305 0.9511-0.17006 0.25825-0.55429 0.25825h-0.36532q-0.4661 0-0.62357-0.22675-0.15117-0.22046-0.15117-0.81253v-1.2094h-0.32123q-0.0315 0.46611-0.11338 0.78734-0.0756 0.32124-0.25195 0.61728-0.17006 0.29603-0.485 0.51019-0.31493 0.21416-0.79364 0.36532-0.0567-0.17006-0.20785-0.39051-0.14487-0.22046-0.28344-0.35273 0.37792-0.10708 0.61727-0.23935 0.23935-0.13857 0.37162-0.33383 0.13227-0.20156 0.18896-0.41572 0.0567-0.22045 0.0756-0.54799h-0.62987v-0.83142h3.6028v0.83142h-0.88811v1.2031q0 0.15746 6e-3 0.19526 0.0126 0.0315 0.0567 0.0315z" style="paint-order:markers stroke fill"/>
   <path d="m172.67 131.58h0.89442v-0.28974h-0.89442zm0.89442-1.2408h-0.89442v0.27084h0.89442zm0.90071-0.78104v3.1178q0 0.28974-0.0693 0.45981-0.063 0.17006-0.23935 0.25825-0.25195 0.14487-0.91331 0.14487-0.0756-0.39052-0.28975-0.78734 0.32124 0.0189 0.5039 6e-3 0.10708 0 0.10708-0.0945v-0.40942h-0.89442v1.2597h-0.88181v-3.9556zm1.7006 2.9982v-3.0927h0.92591v3.1053q0 0.34013-0.0756 0.51649-0.0756 0.18266-0.28344 0.28974-0.32124 0.17006-1.1023 0.15747-0.0819-0.45351-0.32753-0.88182 0.20156 0.0126 0.43461 0.0189 0.23935 0 0.29604-6e-3 0.0756 0 0.10078-0.0189 0.0315-0.0252 0.0315-0.0882zm-0.42201-2.9226v2.6455h-0.85662v-2.6455zm0.45351-1.2849h1.1968v0.84402h-5.9271v-0.84402h1.2534q-0.14487-0.28974-0.42831-0.61728l0.89442-0.31493q0.4472 0.4724 0.58578 0.80623l-0.35903 0.12598h1.707q0.30234-0.46611 0.4787-0.93851l1.0267 0.30234q-0.27085 0.42201-0.42831 0.63617z" style="paint-order:markers stroke fill"/>
   <path d="m178.18 133.21-0.46611-0.24565q0.30864-0.43461 0.35273-1.4613l0.4913 0.0882q-0.0378 0.57318-0.11338 0.97-0.0756 0.39052-0.26454 0.64876zm0.38422-1.5495 0.39052-0.0378q0.0819 0.62987 0.0504 1.1968l-0.40312 0.0504q0.0378-0.52909-0.0378-1.2094zm0.44091-0.0315 0.37162-0.063q0.15747 0.53539 0.18896 1.0456l-0.39682 0.0756q-0.0126-0.42831-0.16376-1.0582zm3.8737-3.1368h-0.9826v1.3101h0.9826zm-4.006 1.814v0.27715h0.28974v-0.27715zm0.28974-1.9148h-0.28974v0.25195h0.28974zm0 1.222v-0.27085h-0.28974v0.27085zm4.5666 1.0456h-0.87552q0.32124 1.5873 1.1716 2.1416-0.15747 0.13227-0.34013 0.35902-0.17636 0.22676-0.27084 0.40312-0.57318-0.41571-0.89442-1.1338-0.31493-0.71805-0.4976-1.7699h-0.13227q-0.063 1.9904-0.66136 2.91-0.11338-0.10078-0.33383-0.23935-0.21416-0.13857-0.37793-0.20786-0.0189 0.0693-0.0756 0.13857-0.14487 0.20786-0.40312 0.25825-0.20155 0.0378-0.57318 0.0252-0.0252-0.39681-0.18896-0.71805 0.14487 0.0189 0.33383 0.0189 0.10078 0 0.17007-0.0882 0.063-0.10078 0.10707-0.44721l-0.19526 0.0693q-0.0441-0.33383-0.25194-0.83142l0.34643-0.11968q0.0882 0.19526 0.15116 0.36533 0.0126-0.32124 0.0252-0.4913h-1.8644v-3.6596h2.5195v0.74955h-0.71175v0.25195h0.61727v0.69915h-0.61727v0.27085h0.61727v0.69285h-0.61727v0.27715h0.85033q-6e-3 0.20785-0.0126 0.30233-0.063 1.581-0.18266 2.0849 0.29603-0.53539 0.38422-1.2345 0.0945-0.70546 0.0945-1.5873v-2.5132h2.6895z" style="paint-order:markers stroke fill"/>
  </g>
  <text fill="#000000" font-family="'Corporate Logo Bold'" font-size="3.5278px" letter-spacing="0px" word-spacing="0px" style="line-height:1.25;shape-inside:url(#rect969);white-space:pre" xml:space="preserve"/>
  <g stroke="#fff" stroke-linejoin="round">
   <g transform="matrix(1.2229 -1.3708 1.3708 1.2229 -64.451 -199.74)" fill="#07c" style="paint-order:markers stroke fill" aria-label="地下鉄 箱崎線">
    <path d="m-119.16 214.97 0.28594-0.12058 0.11369 0.45131q-0.59944 0.31005-1.1162 0.54776l-0.2067-0.51331q0.0724-0.0241 0.23082-0.0827 0.16192-0.062 0.21359-0.0827v-0.92673h-0.38584v-0.48231h0.38584v-0.74758h0.47887v0.74758h0.32729v0.48231h-0.32729zm1.85-0.81304-0.19637 0.0861v0.66491q0.0448 3e-3 0.13092 3e-3 0.0482 0 0.0586-0.0655 7e-3 -0.0413 7e-3 -0.68901zm-0.63389 1.6364h0.59255q0.13436 0 0.17915-0.0758 0.0482-0.0792 0.0723-0.33417 0.19293 0.13091 0.44442 0.18259-0.0448 0.3824-0.18603 0.53054-0.13781 0.15158-0.46165 0.15158h-0.68901q-0.39619 0-0.53399-0.14469-0.13781-0.14125-0.13781-0.55121v-0.80271l-0.14124 0.062-0.18948-0.4513 0.33072-0.14125v-0.90951h0.48576v0.7028l0.19293-0.0827v-0.97151h0.47886v0.76481l0.1757-0.0758h-3e-3l0.0827-0.0517 0.0896-0.062 0.35829 0.12746-0.0172 0.0827q0 0.89916-0.0207 1.1954-0.0103 0.24805-0.1757 0.32728-0.12403 0.0655-0.38585 0.0655-0.0276-0.25493-0.10336-0.41685v0.55466h-0.47886v-1.0163l-0.19293 0.0827v1.0163q0 0.15847 0.0379 0.19981 0.0413 0.0413 0.19637 0.0413z" style="paint-order:markers stroke fill"/>
    <path d="m-113.25 213.74h-1.3918v0.51676l0.0896-0.0999q0.86127 0.43408 1.1782 0.7028l-0.38585 0.47542q-0.25149-0.2446-0.88194-0.61667v1.5847h-0.55122v-2.5631h-1.2368v-0.52021h3.1798z" style="paint-order:markers stroke fill"/>
    <path d="m-112.88 215.07 0.31695-0.0827q0.0896 0.31695 0.11713 0.58222l-0.33418 0.093q-0.0103-0.21704-0.0999-0.59255zm1.3229 0.48231 0.0241 0.23082q0.46164-0.33762 0.60978-0.87505h-0.58567v-0.47542h0.65801q7e-3 -0.0999 7e-3 -0.27905v-0.14125h-0.26871q-0.0792 0.21704-0.18948 0.39963-0.1447-0.11024-0.39619-0.22049v0.0758h-0.31006v0.19293h0.40652v0.43064h-0.40652v0.58911q0.0758-0.27906 0.10336-0.51677l0.35829 0.0861q-0.031 0.0999-0.0896 0.2825-0.0551 0.18259-0.0758 0.24804zm-0.45131-0.0448v0.13091l0.29284-0.0551zm-0.46853-1.664h0.6339q-0.15503-0.22393-0.34451-0.41341-0.15503 0.25149-0.28939 0.41341zm1.0129-0.26183-0.23427 0.2825v0.28594q0.1447-0.21359 0.23427-0.56844zm1.8293 1.3264h-0.65801q0.22048 0.72002 0.72691 0.99219-0.0827 0.0689-0.18259 0.19637-0.0999 0.12746-0.15847 0.23082-0.43753-0.28595-0.68213-0.92329-0.27561 0.56844-0.85783 0.91984-0.093-0.1378-0.27905-0.30661-0.43408 0.0999-1.1059 0.23771l-0.0999-0.4582q0.062-0.0103 0.48576-0.0827v-0.82337h-0.44442v-0.43064h0.44442v-0.19293h-0.28594v-0.15502l-0.0172 0.0172q-0.0482-0.0792-0.14125-0.18259-0.093-0.10335-0.16192-0.15158 0.3893-0.33418 0.58567-0.83371h0.42719q0.40652 0.33761 0.58566 0.58566 0.062-0.25494 0.0827-0.44442l0.46508 0.0792q-0.0241 0.15848-0.0689 0.35485h0.13091v-0.54777h0.49954v0.54777h0.62356v0.47542h-0.62356v0.14469q0 0.0827-0.0138 0.27561h0.72347z" style="paint-order:markers stroke fill"/>
    <path d="m-105.75 214.57h-0.52709v0.1447h0.52709zm-0.52709 0.66835h0.52709v-0.15158h-0.52709zm0 0.53054h0.52709v-0.16192h-0.52709zm1.1507-2.5149v0.42374h-0.52366q0.0999 0.14814 0.14125 0.23427l-0.43408 0.1757q-0.0586-0.16192-0.24116-0.40997h-0.0896q-0.15847 0.24116-0.3135 0.39619-0.0724-0.0655-0.20671-0.15158-0.13436-0.0896-0.22737-0.13781 0.0379-0.031 0.11713-0.11024h-0.32728q0.0586 0.0965 0.0965 0.19981l-0.26183 0.12747h0.11025v0.30662h0.43752v0.46164h-0.43752v0.031q0.30316 0.24805 0.51676 0.45475v-1.1334h1.54v2.1601h-0.52021v-0.1068h-0.52709v0.12747h-0.49265v-0.99218l-0.29972 0.36518q-0.0551-0.093-0.21704-0.29973v0.94051h-0.48921v-0.85783q-0.19637 0.29284-0.39618 0.48921-0.13436-0.24116-0.30662-0.40308 0.34107-0.26182 0.60979-0.77514h-0.4582v-0.46164h0.55121v-0.30662h0.18604q-0.0482-0.11369-0.15159-0.29628-0.15158 0.24461-0.29283 0.39964-0.18259-0.15159-0.43064-0.27906 0.16881-0.15503 0.31695-0.39618 0.14814-0.24116 0.23427-0.49954l0.4892 0.12747q-0.0689 0.17914-0.0758 0.19292h0.69935v0.31006q0.22393-0.2825 0.34107-0.63045l0.49953 0.12747q-0.0241 0.0655-0.0792 0.19637z" style="paint-order:markers stroke fill"/>
    <path d="m-103.91 215.18v-1.6123h0.34106v2.2393h-0.34106v-0.22737h-0.55811v0.30317h-0.3514v-2.3151h0.3514v1.6123h0.0792v-2.1187h0.39618v2.1187zm1.1128-0.0448h-0.19293v0.19293h0.19293zm0.40997 0.54088h-0.6029v0.17914h-0.39963v-1.0645h1.0025zm-0.63735-1.4642h0.94396q-0.0758-0.0379-0.50643-0.23771-0.15847 0.15158-0.43753 0.23771zm1.4745 0v0.41685h-0.18948v1.1954q0 0.1757-0.0413 0.27216-0.0413 0.0965-0.15158 0.14469-0.1757 0.0792-0.58911 0.0792-0.031-0.19637-0.16881-0.4582 0.15847 7e-3 0.39963 7e-3 0.0723 0 0.0723-0.0551v-1.1851h-1.3332v-0.41685h0.21359q-0.0792-0.16881-0.19637-0.29283 0.27561-0.0448 0.43064-0.12058 0.15503-0.0758 0.23082-0.19293h-0.59256v-0.40307h0.69247q7e-3 -0.13781 7e-3 -0.23771h0.46508q-0.0103 0.22048-0.0103 0.23771h0.66145v0.40307h-0.72002l-3e-3 0.0138q0.56499 0.22049 0.76136 0.32729l-0.24116 0.26527z" style="paint-order:markers stroke fill"/>
    <path d="m-99.462 214.17v0.11369h0.8096v-0.11369zm0-0.47887v0.11714h0.8096v-0.11714zm-0.98874 1.4642 0.32728-0.0999q0.12747 0.29972 0.16192 0.57533 0.14469-0.14814 0.23082-0.34451h-0.25838v-0.37551l-0.31006 0.1378q-7e-3 -0.0551-0.0413-0.19293l-0.11024 0.0103zm-0.23427-0.69247 0.19982-0.0138q-0.0482-0.10335-0.0724-0.15158-0.0723 0.0965-0.12747 0.16536zm2.2738 0.2515 0.41341 0.3135q-0.07235 0.0586-0.22393 0.17914-0.15158 0.12058-0.22393 0.1757 0.19982 0.2446 0.48231 0.37207-0.07579 0.0758-0.16881 0.19982-0.08957 0.12402-0.13436 0.21359-0.30661-0.1757-0.53399-0.56155v0.23771q0 0.16537-0.03445 0.25494-0.03101 0.0896-0.12058 0.1378-0.14125 0.0758-0.49609 0.0758-0.02067-0.19637-0.12058-0.43408 0.10335 3e-3 0.26527 3e-3 0.05168 0 0.05168-0.0448v-0.596q-0.20326 0.64424-0.64768 0.93018-0.04823-0.0724-0.14813-0.18259-0.0999-0.1068-0.16881-0.15503 0.12058-0.0689 0.23426-0.1757l-0.3445 0.11024q-0.0172-0.22048-0.12058-0.53399v1.0783h-0.43753v-1.0714q-0.0586 0.51677-0.18603 0.81994-0.15158-0.0965-0.36862-0.17915 0.12057-0.26183 0.15847-0.81304l0.39618 0.0655v-0.23082l-0.45819 0.0379-0.0551-0.43752 0.26527-0.0138q0.0103-0.0138 0.0517-0.0723 0.0448-0.062 0.0689-0.093-0.13436-0.22393-0.38585-0.48576l0.24804-0.34795 0.0655 0.0586q0.1378-0.29628 0.22393-0.58222l0.44096 0.15158q-0.25838 0.49609-0.39963 0.72002 0.031 0.0345 0.0689 0.0861 0.14814-0.2446 0.28939-0.53399l0.41341 0.18948q-0.25149 0.37552-0.45475 0.65112l0.2825-0.12057q0.24116 0.43408 0.30661 0.75791h0.38585l0.07579-0.0103 0.19982 0.0827v-0.26872h-0.66835v-1.3677h0.54088q0.08268-0.22048 0.11369-0.35139l0.58566 0.0827q-0.03101 0.062-0.15503 0.26871h0.66835v1.3677h-0.63045v0.0138q0.04479 0.15503 0.12747 0.33418 0.17914-0.18604 0.26183-0.30661z" style="paint-order:markers stroke fill"/>
   </g>
   <g transform="matrix(1.3472 1.2489 -1.2489 1.3472 -79.29 -209.73)" fill="#e51" style="paint-order:markers stroke fill" aria-label="地下鉄 空港線">
    <path d="m250.13 124.08 0.28595-0.12057 0.11368 0.4513q-0.59944 0.31006-1.1162 0.54777l-0.20671-0.51332q0.0724-0.0241 0.23082-0.0827 0.16192-0.062 0.2136-0.0827v-0.92673h-0.38585v-0.48231h0.38585v-0.74759h0.47886v0.74759h0.32729v0.48231h-0.32729zm1.85-0.81304-0.19637 0.0861v0.6649q0.0448 3e-3 0.13091 3e-3 0.0482 0 0.0586-0.0655 7e-3 -0.0413 7e-3 -0.68902zm-0.6339 1.6364h0.59256q0.13435 0 0.17914-0.0758 0.0482-0.0792 0.0724-0.33417 0.19292 0.13091 0.44441 0.18258-0.0448 0.38241-0.18603 0.53055-0.13781 0.15158-0.46164 0.15158h-0.68902q-0.39619 0-0.53399-0.14469-0.1378-0.14125-0.1378-0.55122v-0.8027l-0.14125 0.062-0.18948-0.45131 0.33073-0.14124v-0.90951h0.48575v0.7028l0.19293-0.0827v-0.97148h0.47887v0.76481l0.1757-0.0758h-3e-3l0.0827-0.0517 0.0896-0.062 0.35828 0.12747-0.0172 0.0827q0 0.89917-0.0207 1.1954-0.0103 0.24805-0.1757 0.32728-0.12402 0.0655-0.38585 0.0655-0.0276-0.25494-0.10335-0.41686v0.55466h-0.47887v-1.0163l-0.19293 0.0827v1.0163q0 0.15848 0.0379 0.19982 0.0413 0.0413 0.19637 0.0413z" style="paint-order:markers stroke fill"/>
    <path d="m256.05 122.84h-1.3918v0.51677l0.0896-0.0999q0.86127 0.43408 1.1782 0.7028l-0.38585 0.47542q-0.25149-0.2446-0.88194-0.61667v1.5847h-0.55121v-2.5632h-1.2368v-0.5202h3.1798z" style="paint-order:markers stroke fill"/>
    <path d="m256.41 124.17 0.31695-0.0827q0.0896 0.31694 0.11713 0.58221l-0.33417 0.093q-0.0103-0.21704-0.0999-0.59255zm1.3229 0.48231 0.0241 0.23082q0.46164-0.33762 0.60978-0.87505h-0.58567v-0.47542h0.65802q7e-3 -0.0999 7e-3 -0.27906v-0.14124h-0.26872q-0.0792 0.21704-0.18948 0.39963-0.14469-0.11025-0.39619-0.22049v0.0758h-0.31005v0.19293h0.40652v0.43063h-0.40652v0.58911q0.0758-0.27905 0.10335-0.51676l0.35829 0.0861q-0.031 0.0999-0.0896 0.28249-0.0551 0.18259-0.0758 0.24805zm-0.4513-0.0448v0.13092l0.29283-0.0551zm-0.46854-1.664h0.6339q-0.15503-0.22393-0.34451-0.41341-0.15503 0.25149-0.28939 0.41341zm1.0129-0.26183-0.23427 0.2825v0.28594q0.1447-0.2136 0.23427-0.56844zm1.8293 1.3264h-0.65801q0.22049 0.72002 0.72691 0.99218-0.0827 0.0689-0.18259 0.19637-0.0999 0.12747-0.15847 0.23082-0.43753-0.28594-0.68213-0.92328-0.2756 0.56844-0.85782 0.91984-0.093-0.1378-0.27906-0.30661-0.43408 0.0999-1.1059 0.23771l-0.0999-0.4582q0.062-0.0103 0.48576-0.0827v-0.82338h-0.44442v-0.43063h0.44442v-0.19293h-0.28594v-0.15503l-0.0172 0.0172q-0.0482-0.0792-0.14125-0.18259-0.093-0.10335-0.16192-0.15159 0.3893-0.33417 0.58567-0.83371h0.42719q0.40652 0.33762 0.58567 0.58567 0.062-0.25494 0.0827-0.44442l0.46508 0.0792q-0.0241 0.15847-0.0689 0.35484h0.13092v-0.54777h0.49953v0.54777h0.62356v0.47543h-0.62356v0.14469q0 0.0827-0.0138 0.27561h0.72347z" style="paint-order:markers stroke fill"/>
    <path d="m262.66 122.82h-0.24115q-0.0276 0.23426-0.0827 0.39618-0.0551 0.15848-0.18259 0.31351-0.12403 0.15158-0.3514 0.25838-0.22738 0.1068-0.57189 0.17914-0.031-0.0965-0.11369-0.22393-0.0792-0.13091-0.15847-0.21015 0.28594-0.0482 0.46509-0.11024 0.18259-0.0655 0.2756-0.16192 0.0965-0.0965 0.13092-0.18948 0.0379-0.0965 0.0586-0.25149h-0.37207v0.3824h-0.50298v-0.84749h1.2471v-0.28939h0.53055v0.28939h1.2781v0.79237h-0.53054v-0.32728h-0.37207v0.48231q0 0.0758 0.0207 0.0965 0.0207 0.0172 0.093 0.0172h0.23771q0.062 0 0.0792-0.0413 0.0207-0.0448 0.031-0.19982 0.0689 0.0482 0.19982 0.0999 0.13091 0.0517 0.23771 0.0724-0.0379 0.28938-0.14814 0.39618-0.1068 0.10335-0.34795 0.10335h-0.36863q-0.32728 0-0.43408-0.11368-0.1068-0.11369-0.1068-0.42719zm0.13092 2.0498h1.2954v0.46165h-3.1006v-0.46165h1.2747v-0.42719h-0.89916v-0.45475h2.4322v0.45475h-1.0025z" style="paint-order:markers stroke fill"/>
    <path d="m265.8 124.29h0.87161v-0.18948h-0.63735v-0.11369q-0.0827 0.13436-0.23426 0.30317zm0.95773-0.78893h-0.46853q-0.0448 0.11024-0.0965 0.21015h0.65801q-0.0379-0.0724-0.093-0.21015zm-0.42374-0.64079v0.18259h0.37551v-0.18259zm0.8027 1.8225h-0.88194v0.16191q0 0.0827 0.0413 0.1068 0.0413 0.0207 0.18948 0.0207h0.51332q0.12058 0 0.15503-0.0586 0.0379-0.0586 0.0517-0.2825 0.16537 0.12058 0.44098 0.17225-0.0448 0.36518-0.16881 0.48921-0.12403 0.12402-0.43753 0.12402h-0.60978q-0.3824 0-0.52021-0.12058-0.13436-0.11713-0.13436-0.44097v-0.54088q-0.11713 0.12402-0.23082 0.20671-0.0448-0.0655-0.14469-0.17915-0.21704 0.5271-0.47542 1.0439l-0.46165-0.30316q0.31006-0.51677 0.56844-1.1334l0.20671 0.15848q0.33073-0.23772 0.53743-0.60634h-0.48231v-0.4582h0.54088v-0.18259h-0.40997v-0.40307l-0.25493 0.36173q-0.19637-0.18603-0.60289-0.36173l0.28249-0.38241q0.42375 0.15848 0.62012 0.3204l-7e-3 0.0103h0.37207v-0.33073h0.49954v0.33073h0.37551v-0.33073h0.50643v0.33073h0.41686v0.45475h-0.41686v0.18259h0.52365v0.4582h-0.47542q0.21704 0.35484 0.55122 0.56155-0.0861 0.0689-0.19637 0.18948-0.1068 0.12058-0.16537 0.21704-0.15503-0.11713-0.31695-0.3135zm-1.8638-1.3505-0.29628 0.42719q-0.19292-0.1757-0.596-0.34451l0.27561-0.38929q0.38929 0.12747 0.61667 0.30661z" style="paint-order:markers stroke fill"/>
    <path d="m269.83 123.28v0.11369h0.8096v-0.11369zm0-0.47887v0.11714h0.8096v-0.11714zm-0.98874 1.4642 0.32729-0.0999q0.12746 0.29972 0.16191 0.57533 0.1447-0.14814 0.23083-0.34451h-0.25839v-0.37552l-0.31005 0.13781q-7e-3 -0.0551-0.0413-0.19293l-0.11025 0.0103zm-0.23426-0.69246 0.19981-0.0138q-0.0482-0.10335-0.0723-0.15158-0.0723 0.0965-0.12746 0.16536zm2.2738 0.25149 0.41341 0.31351q-0.0723 0.0586-0.22393 0.17914-0.15158 0.12058-0.22393 0.1757 0.19982 0.2446 0.48232 0.37207-0.0758 0.0758-0.16881 0.19981-0.0896 0.12403-0.13436 0.2136-0.30661-0.1757-0.53399-0.56155v0.23771q0 0.16537-0.0344 0.25494-0.031 0.0896-0.12058 0.1378-0.14125 0.0758-0.49609 0.0758-0.0207-0.19637-0.12058-0.43408 0.10335 3e-3 0.26527 3e-3 0.0517 0 0.0517-0.0448v-0.596q-0.20326 0.64423-0.64768 0.93018-0.0482-0.0724-0.14814-0.18259-0.0999-0.1068-0.16881-0.15503 0.12058-0.0689 0.23427-0.1757l-0.34451 0.11024q-0.0172-0.22049-0.12058-0.53399v1.0783h-0.43752v-1.0714q-0.0586 0.51676-0.18604 0.81993-0.15158-0.0965-0.36862-0.17914 0.12058-0.26183 0.15847-0.81304l0.39619 0.0654v-0.23082l-0.4582 0.0379-0.0551-0.43753 0.26527-0.0138q0.0103-0.0138 0.0517-0.0723 0.0448-0.062 0.0689-0.093-0.13436-0.22393-0.38585-0.48576l0.24804-0.34795 0.0655 0.0586q0.1378-0.29627 0.22393-0.58222l0.44097 0.15159q-0.25838 0.49609-0.39963 0.72002 0.031 0.0344 0.0689 0.0861 0.14814-0.2446 0.28939-0.53399l0.41341 0.18948q-0.25149 0.37551-0.45475 0.65112l0.2825-0.12058q0.24115 0.43408 0.30661 0.75792h0.38585l0.0758-0.0103 0.19982 0.0827v-0.26872h-0.66835v-1.3677h0.54088q0.0827-0.22048 0.11369-0.3514l0.58566 0.0827q-0.031 0.062-0.15503 0.26871h0.66835v1.3677h-0.63045v0.0138q0.0448 0.15503 0.12747 0.33418 0.17914-0.18604 0.26182-0.30662z" style="paint-order:markers stroke fill"/>
   </g>
   <g transform="matrix(.10091 -1.5562 1.5562 .10091 -97.497 -151.69)" fill="#fe0000" stroke-width="1.4503" style="paint-order:markers stroke fill" aria-label="JR 鹿児島本線 ">
    <path d="m-270.53 190.99v-0.75443q0.47465 0.22483 0.93431 0.22483 0.31476 0 0.45966-0.18986 0.14989-0.18986 0.14989-0.64452v-2.2533h0.89433v2.3732q0 0.75444-0.32976 1.0842-0.32475 0.32976-1.0492 0.32976-0.58457 0-1.0592-0.16988z" style="paint-order:markers stroke fill"/>
    <path d="m-266.18 188.03h-0.31976v1.0542h0.28479q0.35973 0 0.54959-0.14989t0.18986-0.41469q0-0.25481-0.16488-0.36973-0.15988-0.11991-0.5396-0.11991zm-0.31976 1.6937v1.379h-0.85436v-3.7372h1.1242q0.85436 0 1.2391 0.2648 0.38471 0.2648 0.38471 0.79941 0 0.33974-0.20485 0.61953-0.19985 0.2748-0.52461 0.38472v0.01q0.2698 0.14989 0.43468 0.60955l0.39471 1.0492h-0.89434l-0.35473-1.0142q-0.07-0.21484-0.17487-0.28978-0.0999-0.075-0.31477-0.075z" style="paint-order:markers stroke fill"/>
    <path d="m-261.13 188.58h-0.45966q0 0.20485-5e-3 0.31477h0.46465zm0-0.87434h-0.45966v0.28978h0.45966zm1.1941 0.28978v-0.28978h-0.50962v0.28978zm0 0.89933v-0.31477h-0.50962v0.31477zm1.1491-0.31477h-0.45466v0.31477h0.45466zm-0.11491 2.3433h0.30477q0.0849 0 0.11492-0.0899 0.035-0.0899 0.045-0.38472 0.23483 0.16988 0.60955 0.24982-0.05 0.47964-0.20485 0.65451-0.14989 0.17987-0.49463 0.17987h-0.49463q-0.43967 0-0.58956-0.16988-0.14989-0.16987-0.14989-0.62453v-1.2641h-0.92431v0.3997h0.74944v0.58457h-0.74944v0.3897q0.11991-0.01 0.36972-0.035 0.25481-0.025 0.38472-0.035l0.015 0.59455q-1.0092 0.10992-1.8186 0.18986l-0.065-0.63452 0.41469-0.03v-1.4239h-0.23982q-0.10492 1.339-0.52961 2.0485-0.0999-0.0949-0.29478-0.22483-0.18986-0.1299-0.30977-0.17987 0.28479-0.48464 0.37472-1.1392 0.0899-0.65951 0.0899-1.4439v-1.4739h1.7987v-0.33476h0.77942v0.33476h1.7537v0.64452h-1.279v0.28978h1.1591v1.4789h-0.96428v0.43467q0.37972-0.14988 0.59955-0.30477l0.51961 0.47964q-0.47464 0.24982-1.1192 0.4147v0.23482q0 0.1299 0.025 0.15988 0.025 0.03 0.11991 0.03z" style="paint-order:markers stroke fill"/>
    <path d="m-256.26 189.73h0.8044q-0.04 0.38471-0.11491 0.63952-0.07 0.25481-0.24982 0.51462-0.17986 0.25481-0.51961 0.43468-0.33475 0.17986-0.85436 0.30976-0.055-0.14988-0.17987-0.34973-0.11991-0.19486-0.23482-0.31477 0.29478-0.055 0.50962-0.12491 0.21484-0.0699 0.35473-0.15988 0.1399-0.0949 0.22983-0.18486 0.0899-0.0899 0.1399-0.22483 0.055-0.1399 0.0749-0.24982 0.02-0.10992 0.04-0.28978zm1.349-0.015h0.76443v0.96928q0 0.1249 0.03 0.15988 0.03 0.03 0.14489 0.03h0.34974q0.10992 0 0.13989-0.10992 0.035-0.10992 0.05-0.5346 0.20984 0.17487 0.68449 0.28978-0.055 0.61954-0.22484 0.83438-0.16987 0.21984-0.57457 0.21984h-0.54459q-0.48464 0-0.65452-0.18986-0.16487-0.18986-0.16487-0.68949zm-2.1434-2.8379h0.72446v2.8079h-0.72446zm1.2241 0.05h2.6131v2.673h-2.6131zm0.71447 0.63452v0.4047h1.1442v-0.4047zm0 0.98927v0.41469h1.1442v-0.41469z" style="paint-order:markers stroke fill"/>
    <path d="m-249.19 187.6h-1.8286v0.14989h1.8286zm-1.8286 0.76443h1.8286v-0.17487h-1.8286zm3.3475 1.1991h-3.3475v0.17987h3.1726q-5e-3 0.16987-0.02 0.25481-0.0849 1.1541-0.2698 1.369-0.13989 0.15988-0.36972 0.19985-0.16988 0.03-0.52961 0.02-0.01-0.32975-0.17487-0.63452 0.1399 0.02 0.31477 0.02 0.0949 0 0.14989-0.055 0.0849-0.10492 0.13989-0.64951h-1.8036v0.51961h0.42968v-0.41969h0.68449v0.96928h-2.2483v0.20485h-0.6695v-1.1741h0.6695v0.41969h0.45466v-0.51961h-0.6645v-3.1726h1.1392q0.0599-0.31976 0.0649-0.38471l0.89933 0.0549q-0.045 0.12491-0.15988 0.32976h1.369v1.7637h-2.5781v0.16487h3.3475z" style="paint-order:markers stroke fill"/>
    <path d="m-244.53 190.02h0.61954q-0.31976-0.36972-0.61954-0.87934zm-1.394 0h0.59955v-0.86435q-0.28978 0.49463-0.59955 0.86435zm3.2876-1.5888h-1.4539q0.29978 0.54459 0.73945 1.0042 0.44467 0.45966 0.95429 0.73945-0.13989 0.11491-0.30977 0.31476-0.16987 0.19985-0.2698 0.35973-0.43467-0.28478-0.78441-0.6595v0.58456h-0.76943v0.81439h-0.79441v-0.81439h-0.8094v-0.52461q-0.33974 0.35474-0.73944 0.61954-0.25481-0.36473-0.5446-0.61954 0.50463-0.28479 0.93431-0.76443 0.43467-0.48464 0.72945-1.0542h-1.4489v-0.75444h1.8786v-0.9493h0.79441v0.9493h1.8936z" style="paint-order:markers stroke fill"/>
    <path d="m-239.47 188.48v0.16488h1.1741v-0.16488zm0-0.69448v0.16987h1.1741v-0.16987zm-1.4339 2.1234 0.47464-0.14489q0.18486 0.43468 0.23483 0.83438 0.20984-0.21484 0.33475-0.49963h-0.37472v-0.54459l-0.44967 0.19985q-0.01-0.0799-0.0599-0.27979l-0.15988 0.015zm-0.33975-1.0042 0.28978-0.02q-0.0699-0.14989-0.10492-0.21984-0.10492 0.1399-0.18486 0.23982zm3.2975 0.36473 0.59956 0.45466q-0.10493 0.0849-0.32476 0.25981-0.21984 0.17487-0.32476 0.25481 0.28978 0.35473 0.69948 0.5396-0.10992 0.10992-0.24482 0.28978-0.1299 0.17987-0.19485 0.30977-0.44467-0.25481-0.77443-0.81439v0.34474q0 0.23982-0.05 0.36973-0.045 0.1299-0.17487 0.19985-0.20485 0.10991-0.71946 0.10991-0.03-0.28478-0.17487-0.62953 0.14988 5e-3 0.38471 5e-3 0.0749 0 0.0749-0.0649v-0.86436q-0.29478 0.93431-0.9393 1.349-0.0699-0.10492-0.21484-0.26481-0.14489-0.15488-0.24481-0.22483 0.17487-0.0999 0.33974-0.25481l-0.49962 0.15988q-0.025-0.31976-0.17487-0.77442v1.5638h-0.63453v-1.5538q-0.0849 0.74944-0.2698 1.1891-0.21984-0.1399-0.5346-0.25981 0.17487-0.37972 0.22983-1.1791l0.57457 0.0949v-0.33475l-0.66451 0.055-0.0799-0.63453 0.38472-0.02q0.015-0.02 0.0749-0.10492 0.065-0.0899 0.0999-0.1349-0.19486-0.32476-0.55959-0.70447l0.35973-0.50463 0.0949 0.0849q0.19985-0.42968 0.32476-0.84437l0.63953 0.21983q-0.37473 0.71947-0.57957 1.0442 0.045 0.05 0.0999 0.1249 0.21484-0.35473 0.41969-0.77442l0.59955 0.27479q-0.36472 0.5446-0.65951 0.9443l0.4097-0.17487q0.34974 0.62953 0.44467 1.0992h0.55958l0.10992-0.015 0.28978 0.11992v-0.38971h-0.96927v-1.9835h0.78441q0.11991-0.31976 0.16488-0.50962l0.84937 0.11991q-0.045 0.0899-0.22484 0.38971h0.96928v1.9835h-0.91432v0.02q0.065 0.22483 0.18487 0.48464 0.2598-0.2698 0.37971-0.44467z" style="paint-order:markers stroke fill"/>
   </g>
  </g>
  <path d="m298.61 331.32v2.16h18.443v-2.16" fill="none" stroke="#000"/>
  <g stroke-width=".26458" aria-label="200m">
   <path d="m304.65 332.06h-2.1061v-0.27164q0.0988-0.41275 0.46919-0.76552 0.31398-0.25047 0.62442-0.508 0.31397-0.25753 0.31397-0.49036 0-0.127-0.0953-0.20108-0.0917-0.0741-0.25753-0.0741-0.39158 0-0.57855 0.40217l-0.54681-0.19403q0.13759-0.3563 0.43745-0.5468 0.30339-0.19403 0.72672-0.19403 0.44803 0 0.69497 0.21519 0.24694 0.2152 0.24694 0.5715 0 0.34925-0.23636 0.62089-0.127 0.14464-0.52563 0.43392-0.37042 0.26811-0.52564 0.47272h1.3582z"/>
   <path d="m307.31 330.65q0 1.4358-1.1042 1.4358-1.1077 0-1.1077-1.4358t1.1077-1.4358q1.1042 0 1.1042 1.4358zm-0.59266 0q0-0.90311-0.51153-0.90311t-0.51153 0.90311 0.51153 0.90311 0.51153-0.90311z"/>
   <path d="m309.96 330.65q0 1.4358-1.1042 1.4358-1.1077 0-1.1077-1.4358t1.1077-1.4358q1.1042 0 1.1042 1.4358zm-0.59266 0q0-0.90311-0.51153-0.90311-0.51152 0-0.51152 0.90311t0.51152 0.90311q0.51153 0 0.51153-0.90311z"/>
   <path d="m313.09 332.06h-0.55386v-1.2559q0-0.1517-0.0282-0.20814-0.0423-0.0776-0.16228-0.0776-0.0952 0-0.18697 0.0811-0.0917 0.0811-0.11994 0.16933v1.2912h-0.55386v-1.2559q0-0.1517-0.0247-0.20814-0.0388-0.0776-0.15522-0.0776-0.0917 0-0.18344 0.0776-0.0917 0.0776-0.11995 0.16933v1.2947h-0.55033v-2.0214h0.55033v0.23636q0.21167-0.26811 0.51859-0.26811 0.31397 0 0.44097 0.27164 0.23283-0.27164 0.56444-0.27164 0.56444 0 0.56444 0.64558z"/>
  </g>
  <path d="m154.6 151.7a1.9977 1.9977 0 0 1-2.124 1.8628 1.9977 1.9977 0 0 1-1.8629-2.1239 1.9977 1.9977 0 0 1 2.1239-1.8629 1.9977 1.9977 0 0 1 1.863 2.1238" fill="#ff0" stroke="#f00" stroke-linecap="round" stroke-linejoin="round" stroke-width="2" style="paint-order:markers stroke fill"/>
  <text fill="black" font-family="'Corporate Logo Bold'" font-size="3.5278px" letter-spacing="0px" word-spacing="0px" style="line-height:1.25;shape-inside:url(#rect986);white-space:pre" xml:space="preserve"/>
  <g fill="#ff0" stroke="#f00" stroke-linejoin="round" stroke-width="1.134" aria-label="福岡県庁">
   <path d="m152.49 158.3h-4.039v-0.95916h4.039zm-0.24728 2.0682h-3.5669v-1.8284h3.5669zm-1.0116-0.71937v-0.34469h-1.5362v0.34469zm0.20232 2.0682v-0.3447h-0.53953v0.3447zm0 1.0566v-0.36717h-0.53953v0.36717zm-1.3938-1.0566v-0.3447h-0.53203v0.3447zm0 1.0566v-0.36717h-0.53203v0.36717zm-2.3829 1.169h-1.0641v-2.1431q-0.31472 0.3372-0.68939 0.6819l-0.39715-1.0491q1.2289-1.169 1.731-2.2181h-1.4987v-0.98913h0.85425v-1.0116h1.0641v1.0116h0.71188v0.86175q-0.25478 0.59947-0.62945 1.199 0.31472 0.35219 0.76433 0.77182v-0.46459h3.934v3.3271h-1.0566v-0.29974h-1.8209v0.29974h-1.0566v-2.5103l-0.37467 0.6819q-0.2323-0.23979-0.47209-0.50206z" style="paint-order:stroke markers fill"/>
   <path d="m158.52 160.45h-1.4013v1.3788h0.37467v-1.1765h0.81679v2.1731h7e-3q0.20232 0 0.26227-0.0899 0.0599-0.0674 0.0599-0.27726v-3.994h-4.024v5.4627h-1.139v-6.4968h6.302v5.2829q0 0.7943-0.20982 0.98913-0.20981 0.20232-0.98164 0.20232h-0.81678l-0.31473-1.0116h-1.5062v0.37467h-1.0116v-2.6152h0.83177v1.1765h0.36718v-1.3788h-1.4013v-0.95167h0.61446q-0.0974-0.29973-0.30723-0.74934l1.0491-0.2248q0.2323 0.58449 0.3447 0.97414h0.35968q0.22481-0.562 0.31473-0.97414l1.0416 0.17235q-0.12739 0.46459-0.26976 0.80179h0.63694z" style="paint-order:stroke markers fill"/>
   <path d="m166.93 160.81h-4.3012v-3.4994h4.3012zm-1.139-2.4504v-0.24728h-2.0232v0.24728zm0 0.83927v-0.24729h-2.0232v0.24729zm0 0.84676v-0.25478h-2.0232v0.25478zm-2.5852 2.4129q-0.64443 0.75684-1.686 1.4013l-0.85425-0.74934q1.0191-0.53204 1.6111-1.109h-1.2364v-4.3162h1.169v3.3646h5.2604v0.95167h-1.5137q0.65193 0.5695 1.6411 1.0566l-0.86923 0.78681q-1.0566-0.60696-1.7684-1.3788l0.71187-0.46459h-0.97414v1.9033h-1.1915v-1.9033h-1.0191z" style="paint-order:stroke markers fill"/>
   <path d="m174.85 159.06h-4.9906v0.84675q0 1.2889-0.1199 2.0982-0.14237 0.98914-0.53953 1.9783l-1.1914-0.54702q0.41963-0.78681 0.5695-1.8209 0.10491-0.71937 0.10491-1.9258v-1.731h2.3754v-0.73435h1.2439v0.73435h2.5478zm0.0974 1.7235h-1.6336v1.9108q0 0.72686-0.20982 0.94417-0.20981 0.2248-0.81678 0.2248h-1.0791l-0.32221-1.109h0.86174q0.21731 0 0.29224-0.0899 0.0525-0.0675 0.0525-0.26227v-1.6186h-1.9408v-1.0716h4.7958z" style="paint-order:stroke markers fill"/>
  </g>
 </g>
</svg>
